<?xml version="1.0" encoding="UTF-8"?>
<svg width="867px" height="531px" viewBox="0 0 867 531" version="1.1" xmlns="http://www.w3.org/2000/svg" xmlns:xlink="http://www.w3.org/1999/xlink" jetway-hooks="{}">
    <!-- Generator: Sketch 59.1 (86144) - https://sketch.com -->
    <title>Node JS</title>
    <desc>Created with Sketch.</desc>
    <defs>
        <polygon id="path-1" points="0 0.251784133 186.016319 0.251784133 186.016319 191.670426 0 191.670426"></polygon>
        <polygon id="path-3" points="0.161121445 0.1430369 186.263848 0.1430369 186.263848 334.001351 0.161121445 334.001351"></polygon>
        <path d="M87.5707579,2.26497248 L5.07682105,50.0007156 C1.99117895,51.7853578 0.0920210526,55.0817431 0.0920210526,58.6529908 L0.0920210526,58.6529908 L0.0920210526,154.201046 C0.0920210526,157.768367 1.99117895,161.064752 5.07290526,162.853321 L5.07290526,162.853321 L87.5668421,210.62833 C90.6505263,212.412972 94.4488421,212.412972 97.5325263,210.62833 L97.5325263,210.62833 L180.008842,162.853321 C183.088611,161.064752 184.987768,157.768367 184.987768,154.201046 L184.987768,154.201046 L184.987768,58.6510275 C184.987768,55.0817431 183.088611,51.7853578 180.004926,50.0007156 L180.004926,50.0007156 L97.5305684,2.26497248 C95.9897053,1.37363303 94.2706737,0.927963303 92.5496842,0.927963303 L92.5496842,0.927963303 C90.8286947,0.927963303 89.1096632,1.37363303 87.5707579,2.26497248" id="path-5"></path>
        <linearGradient x1="63.9242353%" y1="17.4786824%" x2="32.9845515%" y2="89.7189719%" id="linearGradient-7">
            <stop stop-color="#00AC47" offset="0%"></stop>
            <stop stop-color="#009131" offset="100%"></stop>
        </linearGradient>
        <path d="M0.183956989,159.278741 C0.968709677,160.309296 1.95894624,161.19263 3.11356989,161.862 L3.11356989,161.862 L73.899828,202.868296 L85.6221935,209.628741 C87.3815269,210.649481 89.3913548,211.081333 91.365957,210.934111 L91.365957,210.934111 C92.0274194,210.879148 92.6830108,210.759407 93.3249032,210.570963 L93.3249032,210.570963 L180.273935,50.8721481 C179.608559,50.1556667 178.833591,49.5314444 177.964688,49.0289259 L177.964688,49.0289259 L124.352968,17.9885926 L95.4404086,1.30144444 C94.6243441,0.82837037 93.7515269,0.488777778 92.8532688,0.268925926 L92.8532688,0.268925926 L0.183956989,159.278741 Z" id="path-8"></path>
        <linearGradient x1="66.988386%" y1="0%" x2="50%" y2="100%" id="linearGradient-10">
            <stop stop-color="#00AC47" offset="0%"></stop>
            <stop stop-color="#00AC47" offset="100%"></stop>
        </linearGradient>
        <path d="M86.6007097,0.977045872 C85.2190753,1.11447706 83.8589677,1.54444037 82.6162796,2.26497248 L82.6162796,2.26497248 L0.395333333,49.8652477 L89.0312903,211.863248 C90.2602796,211.682624 91.463828,211.27033 92.5734409,210.62833 L92.5734409,210.62833 L175.011613,162.853321 C177.553742,161.376917 179.293505,158.867817 179.819935,156.028881 L179.819935,156.028881 L89.448129,1.14392661 C88.7827527,1.01042202 88.1036774,0.943669725 87.4246022,0.943669725 L87.4246022,0.943669725 C87.1506237,0.943669725 86.8746882,0.953486239 86.6007097,0.977045872" id="path-11"></path>
        <linearGradient x1="50%" y1="0%" x2="50%" y2="100%" id="linearGradient-13">
            <stop stop-color="#FFFFFF" offset="0%"></stop>
            <stop stop-color="#00AC47" offset="100%"></stop>
        </linearGradient>
    </defs>
    <g jetway-hook-id="85E6447B-1202-4846-B89B-6675F60426A8" id="R3" stroke="none" stroke-width="1" fill="none" fill-rule="evenodd">
        <g jetway-hook-id="5D31F05F-2896-4A7D-B610-59AD74DF5A85" id="Programme" transform="translate(-3351.000000, -314.000000)">
            <g jetway-hook-id="3AB8D16F-8B5F-4077-9972-C5568E0E3822" id="Node-JS" transform="translate(3351.000000, 314.000000)">
                <g jetway-hook-id="C60CF471-CAF1-4A30-81E2-3E56E543CDFA" id="Group-17">
                    <path d="M428.410511,530.999804 C425.551793,530.999804 422.702872,530.25131 420.202719,528.803306 L394.06671,513.339645 C390.165608,511.156863 392.072073,510.382896 393.357419,509.934192 C398.565419,508.127616 399.617599,507.710262 405.174367,504.559531 C405.75238,504.234269 406.520452,504.355752 407.11806,504.708446 L427.195703,516.629494 C427.922628,517.031173 428.949337,517.031173 429.619441,516.629494 L507.896191,471.447468 C508.623116,471.032073 509.093364,470.193446 509.093364,469.329346 L509.093364,378.994686 C509.093364,378.110992 508.623116,377.284121 507.876597,376.835417 L429.633157,331.694538 C428.91015,331.271306 427.95006,331.271306 427.221175,331.694538 L348.997328,376.849132 C348.237093,377.284121 347.755089,378.134505 347.755089,378.994686 L347.755089,469.329346 C347.755089,470.193446 348.237093,471.012479 348.989491,471.421996 L370.432814,483.811343 C382.06754,489.62883 389.189843,482.778734 389.189843,475.893369 L389.189843,386.701044 C389.189843,385.443103 390.204795,384.447723 391.466628,384.447723 L401.390827,384.447723 C402.633066,384.447723 403.659775,385.443103 403.659775,386.701044 L403.659775,475.893369 C403.659775,491.42169 395.203143,500.327206 380.482412,500.327206 C375.958231,500.327206 372.3961,500.327206 362.452308,495.426723 L341.925969,483.609524 C336.855125,480.678247 333.716218,475.197778 333.716218,469.329346 L333.716218,378.994686 C333.716218,373.124295 336.855125,367.645786 341.925969,364.728225 L420.202719,319.495254 C425.154042,316.693299 431.739477,316.693299 436.651613,319.495254 L514.922484,364.728225 C519.991369,367.659501 523.145951,373.124295 523.145951,378.994686 L523.145951,469.329346 C523.145951,475.197778 519.991369,480.658653 514.922484,483.609524 L436.651613,528.803306 C434.1495,530.25131 431.310376,530.999804 428.410511,530.999804" jetway-hook-id="B026D694-F149-425C-A8A9-AADB744A2AC8" id="Fill-1" fill="#00AC47" opacity="0.504207"></path>
                    <path d="M452.588916,468.763665 C418.337205,468.763665 411.16004,453.041362 411.16004,439.852576 C411.16004,438.596595 412.169114,437.597296 413.42311,437.597296 L423.543245,437.597296 C424.6738,437.597296 425.616256,438.410451 425.7926,439.513599 C427.318947,449.816174 431.874478,455.016447 452.588916,455.016447 C469.080916,455.016447 476.099372,451.285731 476.099372,442.536968 C476.099372,437.493447 474.108654,433.749015 448.48208,431.240971 C427.066189,429.122849 413.818902,424.388916 413.818902,407.253879 C413.818902,391.461038 427.130848,382.042156 449.450008,382.042156 C474.525999,382.042156 486.934676,390.745853 488.508049,409.419027 C488.56487,410.063672 488.337584,410.680886 487.908482,411.162901 C487.48134,411.609646 486.883733,411.883964 486.252816,411.883964 L476.093493,411.883964 C475.039353,411.883964 474.108654,411.135469 473.895083,410.114617 C471.459588,399.273204 465.530541,395.808968 449.450008,395.808968 C431.445376,395.808968 429.352771,402.082997 429.352771,406.779702 C429.352771,412.473746 431.823534,414.131407 456.133412,417.350717 C480.188572,420.528879 491.613647,425.033562 491.613647,441.939348 C491.613647,458.996008 477.392554,468.763665 452.588916,468.763665" jetway-hook-id="576EFC87-F593-4F7C-A036-0C8D69D3291E" id="Fill-3" fill="#00AC47" opacity="0.504207"></path>
                    <path d="M547.903349,372.984197 L550.53674,372.984197 C552.686166,372.984197 553.089796,371.471533 553.089796,370.591758 C553.089796,368.275736 551.490952,368.275736 550.615114,368.275736 L547.903349,368.275736 L547.903349,372.984197 Z M544.70566,365.561954 L550.53674,365.561954 C552.531376,365.561954 556.444234,365.561954 556.444234,370.033326 C556.444234,373.146828 554.449597,373.783636 553.246545,374.183356 C555.566437,374.342068 555.723186,375.86061 556.040604,378.014001 C556.203232,379.369913 556.444234,381.687894 556.92036,382.485374 L553.332758,382.485374 C553.246545,381.687894 552.686166,377.375234 552.686166,377.138145 C552.453001,376.179994 552.127746,375.701898 550.932532,375.701898 L547.981724,375.701898 L547.981724,382.485374 L544.70566,382.485374 L544.70566,365.561954 Z M537.726392,373.983496 C537.726392,381.009939 543.392884,386.676551 550.334925,386.676551 C557.361218,386.676551 563.02967,380.888455 563.02967,373.983496 C563.02967,366.959013 557.282843,361.372736 550.334925,361.372736 C543.471259,361.372736 537.726392,366.878677 537.726392,373.983496 L537.726392,373.983496 Z M565.459286,374.024644 C565.459286,382.326662 558.673995,389.110138 550.374112,389.110138 C542.150645,389.110138 535.288938,382.406998 535.288938,374.024644 C535.288938,365.483577 542.313272,358.93523 550.374112,358.93523 C558.517245,358.93523 565.459286,365.483577 565.459286,374.024644 L565.459286,374.024644 Z" jetway-hook-id="8CB3C65B-37A4-47EA-8A84-8DA412F4DC72" id="Fill-5" fill="#00AC47" opacity="0.504207"></path>
                    <g jetway-hook-id="017BDABB-629A-4E09-A4E8-5781ECB706C9" id="Group-9" transform="translate(0.000000, 119.523985)">
                        <mask id="mask-2" fill="white">
                            <use xlink:href="#path-1"></use>
                        </mask>
                        <g jetway-hook-id="87E797A9-1B58-4437-86DC-C1C67335FD48" id="Clip-8"></g>
                        <path d="M186.016319,58.0426107 C186.016319,54.4353376 184.117691,51.1200166 181.004256,49.3330351 L98.0152262,1.5724262 C96.6123187,0.745555351 95.0389463,0.318404059 93.4479395,0.251784133 L92.5897363,0.251784133 C91.0026483,0.318404059 89.4312352,0.745555351 88.0067747,1.5724262 L5.01774537,49.3330351 C1.92390339,51.1200166 -0.000195936795,54.4353376 -0.000195936795,58.0426107 L0.182025282,186.648459 C0.182025282,188.435441 1.11076569,190.100939 2.68609752,190.976795 C4.22616072,191.901637 6.128707,191.901637 7.6628921,190.976795 L56.984102,162.735825 C60.1034158,160.884183 62.0020433,157.613928 62.0020433,154.039965 L62.0020433,93.9546697 C62.0020433,90.372869 63.8987115,87.057548 67.0062691,85.2764446 L88.0067747,73.1810092 C89.5723097,72.2777214 91.2828379,71.8348948 93.0305941,71.8348948 C94.7411223,71.8348948 96.496716,72.2777214 98.0152262,73.1810092 L119.009854,85.2764446 C122.117411,87.057548 124.021917,90.372869 124.021917,93.9546697 L124.021917,154.039965 C124.021917,157.613928 125.946016,160.903777 129.045736,162.735825 L178.353231,190.976795 C179.899172,191.901637 181.831109,191.901637 183.363335,190.976795 C184.891642,190.100939 185.853691,188.435441 185.853691,186.648459 L186.016319,58.0426107 Z" jetway-hook-id="95FE8C34-DAB2-4A22-9DD1-5304F607F6AE" id="Fill-7" fill="#80868B" opacity="0.620093936" mask="url(#mask-2)"></path>
                    </g>
                    <g jetway-hook-id="B79D8CEA-176F-49CD-9B80-557340B9EE12" id="Group-12" transform="translate(453.613995, 0.000000)">
                        <mask id="mask-4" fill="white">
                            <use xlink:href="#path-3"></use>
                        </mask>
                        <g jetway-hook-id="0B09D418-B59B-4AC0-B5FD-299612234661" id="Clip-11"></g>
                        <path d="M124.014729,244.53177 C124.014729,245.425261 123.536643,246.254091 122.758774,246.698877 L94.2558483,263.130486 C93.481898,263.575272 92.5276858,263.575272 91.7537354,263.130486 L63.2468912,246.698877 C62.4709815,246.254091 61.9948551,245.425261 61.9948551,244.53177 L61.9948551,211.615648 C61.9948551,210.722158 62.4709815,209.893327 63.2449318,209.444623 L91.7498167,192.981663 C92.5276858,192.532958 93.481898,192.532958 94.2578077,192.981663 L122.762693,209.444623 C123.536643,209.893327 124.014729,210.722158 124.014729,211.615648 L124.014729,244.53177 Z M131.717004,0.777297786 C130.165185,-0.086801845 128.268516,-0.0672077491 126.736291,0.830201845 C125.202106,1.73153026 124.261609,3.37743432 124.261609,5.15461882 L124.261609,132.516242 C124.261609,133.766346 123.591505,134.926316 122.509934,135.553327 C121.424444,136.182298 120.086196,136.182298 118.998747,135.553327 L98.2137716,123.579375 C95.1140515,121.790434 91.2991621,121.794353 88.199442,123.581335 L5.17710339,171.494777 C2.07346456,173.287637 0.161121445,176.595121 0.161121445,180.176921 L0.161121445,276.023401 C0.161121445,279.603242 2.07346456,282.914645 5.17514402,284.707504 L88.1916045,332.658176 C91.2952433,334.449076 95.1160108,334.449076 98.2196497,332.658176 L181.251785,284.707504 C184.351505,282.914645 186.263848,279.603242 186.263848,276.023401 L186.263848,37.1008328 C186.263848,33.4680875 184.296643,30.1155376 181.122467,28.3442314 L131.717004,0.777297786 Z" jetway-hook-id="786E3748-6E15-44F1-961B-E0D25C255EB0" id="Fill-10" fill="#80868B" opacity="0.620093936" mask="url(#mask-4)"></path>
                    </g>
                    <path d="M861.779007,210.755076 C864.866971,208.960256 866.767558,205.658651 866.767558,202.086648 L866.767558,178.859806 C866.767558,175.287803 864.866971,171.982279 861.775088,170.189419 L779.287657,122.29557 C776.184018,120.490954 772.351494,120.488994 769.241977,122.281854 L686.250989,170.195297 C683.149309,171.986197 681.238926,175.293681 681.238926,178.875482 L681.238926,274.698448 C681.238926,278.301803 683.174781,281.626921 686.301932,283.408024 L768.777607,330.404463 C771.820506,332.1405 775.547223,332.160094 778.609716,330.459327 L828.495223,302.729762 C830.076433,301.849987 831.061995,300.190367 831.071792,298.383792 C831.085508,296.577216 830.123458,294.901921 828.555964,294.002552 L745.037905,246.065596 C743.478248,245.172105 742.520117,243.510526 742.520117,241.717666 L742.520117,211.687755 C742.520117,209.896854 743.47433,208.239194 745.028108,207.345703 L771.021084,192.360138 C772.567025,191.466648 774.477409,191.466648 776.02335,192.360138 L802.032,207.345703 C803.583819,208.239194 804.539991,209.896854 804.539991,211.687755 L804.539991,235.314315 C804.539991,237.109135 805.498122,238.766795 807.051901,239.660286 C808.605679,240.555736 810.519982,240.549858 812.069842,239.650489 L861.779007,210.755076 Z" jetway-hook-id="C33936A1-BBBB-4773-95FD-D4A4FAFAEB43" id="Fill-13" fill="#80868B" opacity="0.620093936"></path>
                    <path d="M773.041192,206.266852 C773.63684,205.921996 774.371603,205.921996 774.965291,206.266852 L790.896912,215.456483 C791.49256,215.803299 791.858962,216.436188 791.858962,217.1259 L791.858962,235.518878 C791.858962,236.20859 791.49256,236.841479 790.896912,237.186335 L774.965291,246.377926 C774.371603,246.720823 773.63684,246.720823 773.041192,246.377926 L757.123287,237.186335 C756.527639,236.841479 756.163196,236.20859 756.163196,235.518878 L756.163196,217.1259 C756.163196,216.436188 756.527639,215.803299 757.123287,215.456483 L773.041192,206.266852 Z" jetway-hook-id="D4F76824-5AEA-47EB-A32B-0486FDA096FD" id="Fill-15" fill="#00AC47" opacity="0.499735"></path>
                </g>
                <path d="M74.3333333,152 C75.7140452,152 77,134.989701 77,132.147059 C77,129.304417 75.8807119,127 74.5,127 C73.1192881,127 72,129.304417 72,132.147059 C72,134.989701 72.9526215,152 74.3333333,152 Z" jetway-hook-id="95E22469-5A1F-43AE-9D50-9283EFBABF72" id="Oval" fill="#FFFFFF" transform="translate(74.500000, 139.500000) rotate(58.000000) translate(-74.500000, -139.500000) "></path>
                <g jetway-hook-id="804D3FB9-7942-45B9-BB3C-7F0410B4D23E" id="Group-20" transform="translate(227.000000, 120.000000)">
                    <mask id="mask-6" fill="white">
                        <use xlink:href="#path-5"></use>
                    </mask>
                    <g jetway-hook-id="4A2346E7-5BB6-4C9B-A39C-BD70A78B03CB" id="Clip-19"></g>
                    <path d="M87.5707579,2.26497248 L5.07682105,50.0007156 C1.99117895,51.7853578 0.0920210526,55.0817431 0.0920210526,58.6529908 L0.0920210526,58.6529908 L0.0920210526,154.201046 C0.0920210526,157.768367 1.99117895,161.064752 5.07290526,162.853321 L5.07290526,162.853321 L87.5668421,210.62833 C90.6505263,212.412972 94.4488421,212.412972 97.5325263,210.62833 L97.5325263,210.62833 L180.008842,162.853321 C183.088611,161.064752 184.987768,157.768367 184.987768,154.201046 L184.987768,154.201046 L184.987768,58.6510275 C184.987768,55.0817431 183.088611,51.7853578 180.004926,50.0007156 L180.004926,50.0007156 L97.5305684,2.26497248 C95.9897053,1.37363303 94.2706737,0.927963303 92.5496842,0.927963303 L92.5496842,0.927963303 C90.8286947,0.927963303 89.1096632,1.37363303 87.5707579,2.26497248" jetway-hook-id="DD5FC57F-7064-49D1-8A50-68950C1A2C12" id="Fill-18" fill="url(#linearGradient-7)" opacity="0.44968378" mask="url(#mask-6)"></path>
                </g>
                <g jetway-hook-id="706C78E9-9E0B-4F59-B797-26AF2D16428E" id="Group-23" transform="translate(229.000000, 121.000000)">
                    <mask id="mask-9" fill="white">
                        <use xlink:href="#path-8"></use>
                    </mask>
                    <g jetway-hook-id="0ACB526C-D70A-4CDC-A026-74E6B36D0406" id="Clip-22"></g>
                    <path d="M0.183956989,159.278741 C0.968709677,160.309296 1.95894624,161.19263 3.11356989,161.862 L3.11356989,161.862 L73.899828,202.868296 L85.6221935,209.628741 C87.3815269,210.649481 89.3913548,211.081333 91.365957,210.934111 L91.365957,210.934111 C92.0274194,210.879148 92.6830108,210.759407 93.3249032,210.570963 L93.3249032,210.570963 L180.273935,50.8721481 C179.608559,50.1556667 178.833591,49.5314444 177.964688,49.0289259 L177.964688,49.0289259 L124.352968,17.9885926 L95.4404086,1.30144444 C94.6243441,0.82837037 93.7515269,0.488777778 92.8532688,0.268925926 L92.8532688,0.268925926 L0.183956989,159.278741 Z" jetway-hook-id="6888D8AD-7097-4F7B-8171-E3F3105F7069" id="Fill-21" fill="url(#linearGradient-10)" opacity="0.360956101" mask="url(#mask-9)"></path>
                </g>
                <polygon jetway-hook-id="835463B9-7095-4826-AE44-FAC14C9DFF35" id="Fill-24" points="312.385 104.668 311.227 105.332 312.773 105.332"></polygon>
                <g jetway-hook-id="66CB6E2B-368D-4FAB-B4C6-59AD8B76507A" id="Group-27" transform="translate(232.000000, 120.000000)">
                    <mask id="mask-12" fill="white">
                        <use xlink:href="#path-11"></use>
                    </mask>
                    <g jetway-hook-id="AABB042B-E9C5-43C6-B64C-805B6733E812" id="Clip-26"></g>
                    <path d="M82.6162796,2.26497248 L0.395333333,49.8652477 L89.0312903,211.863248 C90.2602796,211.682624 91.463828,211.27033 92.5734409,210.62833 L175.011613,162.853321 C177.553742,161.376917 179.293505,158.867817 179.819935,156.028881 L89.448129,1.14392661 C88.7827527,1.01042202 88.1036774,0.943669725 87.4246022,0.943669725 C87.1506237,0.943669725 86.8746882,0.953486239 86.6007097,0.977045872 C85.2190753,1.11447706 83.8589677,1.54444037 82.6162796,2.26497248 Z" jetway-hook-id="D65AA2F7-9C87-49EB-B72A-ABA987591F25" id="Fill-25" fill="url(#linearGradient-13)" mask="url(#mask-12)"></path>
                </g>
                <polygon jetway-hook-id="D4EF5962-B09E-4E9F-996D-591423821B1F" id="Fill-28" points="415.279 281.317 414.721 280.361 414.721 281.639"></polygon>
                <path d="M407.883509,283.315924 L325.62748,330.780932 C324.49633,331.43437 323.261817,331.842038 322,332.015638 L323.638217,335 L415,282.104624 L415,280.858214 L412.741601,277 C412.064862,279.627409 410.278426,281.931024 407.883509,283.315924" jetway-hook-id="E264FDD9-ED70-4D36-B3B2-28800BC12B00" id="Fill-29"></path>
                <path d="M299.333333,156 C300.714045,156 302,138.989701 302,136.147059 C302,133.304417 300.880712,131 299.5,131 C298.119288,131 297,133.304417 297,136.147059 C297,138.989701 297.952621,156 299.333333,156 Z" jetway-hook-id="06D3B14B-C4A2-43AC-9CB5-43FEF595AF79" id="Oval" fill="#FFFFFF" transform="translate(299.500000, 143.500000) rotate(58.000000) translate(-299.500000, -143.500000) "></path>
                <path d="M532.333333,160 C533.714045,160 535,142.989701 535,140.147059 C535,137.304417 533.880712,135 532.5,135 C531.119288,135 530,137.304417 530,140.147059 C530,142.989701 530.952621,160 532.333333,160 Z" jetway-hook-id="36E6A333-CB51-4CF5-A55D-2903EF7AEEA2" id="Oval-Copy-2" fill="#FFFFFF" transform="translate(532.500000, 147.500000) rotate(58.000000) translate(-532.500000, -147.500000) "></path>
                <path d="M753.333333,164 C754.714045,164 756,146.989701 756,144.147059 C756,141.304417 754.880712,139 753.5,139 C752.119288,139 751,141.304417 751,144.147059 C751,146.989701 751.952621,164 753.333333,164 Z" jetway-hook-id="0DDA0A69-2B91-4646-97D8-5A9EE2FF79C6" id="Oval-Copy-3" fill="#FFFFFF" transform="translate(753.500000, 151.500000) rotate(58.000000) translate(-753.500000, -151.500000) "></path>
                <path d="M765.933333,219 C766.485618,219 767,214.237116 767,213.441176 C767,212.645237 766.552285,212 766,212 C765.447715,212 765,212.645237 765,213.441176 C765,214.237116 765.381049,219 765.933333,219 Z" jetway-hook-id="595EC7C7-1A08-4338-873E-5F5EDDED02ED" id="Oval-Copy-4" fill="#FFFFFF" transform="translate(766.000000, 215.500000) rotate(58.000000) translate(-766.000000, -215.500000) "></path>
            </g>
        </g>
    </g>
</svg>