<?xml version="1.0" encoding="UTF-8"?>
<svg width="502px" height="508px" viewBox="0 0 502 508" version="1.1" xmlns="http://www.w3.org/2000/svg" xmlns:xlink="http://www.w3.org/1999/xlink" jetway-hooks="{}">
    <!-- Generator: Sketch 59.1 (86144) - https://sketch.com -->
    <title>Python</title>
    <desc>Created with Sketch.</desc>
    <g jetway-hook-id="85E6447B-1202-4846-B89B-6675F60426A8" id="R3" stroke="none" stroke-width="1" fill="none" fill-rule="evenodd">
        <g jetway-hook-id="5D31F05F-2896-4A7D-B610-59AD74DF5A85" id="Programme" transform="translate(-2481.000000, -314.000000)">
            <g jetway-hook-id="C2C912C5-2954-4D82-B510-60B6B51F6456" id="Python" transform="translate(2481.000000, 314.000000)">
                <path d="M247.806,0.783 C227.128,0.881 207.38,2.642 190.003,5.718 C138.816,14.762 129.523,33.688 129.523,68.595 L129.523,114.698 L250.486,114.698 L250.486,130.064 L129.522,130.064 L84.126,130.064 C48.971,130.064 18.189,151.194 8.563,191.389 C-2.544,237.464 -3.04,266.219 8.563,314.328 C17.162,350.136 37.693,375.652 72.849,375.652 L114.438,375.652 L114.438,320.383 C114.438,280.462 148.982,245.24 190.002,245.24 L310.824,245.24 C344.456,245.24 371.303,217.551 371.303,183.774 L371.303,68.594 C371.303,35.818 343.65,11.188 310.824,5.717 C290.045,2.257 268.483,0.684 247.806,0.783 Z M182.391,37.86 C194.885,37.86 205.09,48.23 205.09,60.98 C205.09,73.685 194.885,83.962 182.391,83.962 C169.849,83.962 159.692,73.685 159.692,60.98 C159.692,48.23 169.849,37.86 182.391,37.86 Z" jetway-hook-id="DD06F834-4792-4321-AA59-DEA7E7290513" id="path1948_1_" fill="#4682F4" fill-rule="nonzero" opacity="0.498093378"></path>
                <path d="M386.387,130.062 L386.387,183.774 C386.387,225.422 351.084,260.466 310.825,260.466 L190.002,260.466 C156.908,260.466 129.522,288.793 129.522,321.935 L129.522,437.121 C129.522,469.898 158.025,489.184 190.002,498.584 C228.293,509.843 265.006,511.884 310.824,498.584 C341.275,489.772 371.303,472.023 371.303,437.121 L371.303,391.016 L250.485,391.016 L250.485,375.652 L371.302,375.652 L431.781,375.652 C466.938,375.652 480.041,351.133 492.263,314.328 C504.892,276.433 504.356,239.993 492.263,191.389 C483.576,156.396 466.982,130.062 431.781,130.062 L386.387,130.062 L386.387,130.062 Z M318.438,421.75 C330.977,421.75 341.136,432.019 341.136,444.725 C341.136,457.474 330.977,467.849 318.438,467.849 C305.945,467.849 295.742,457.474 295.742,444.725 C295.741,432.019 305.944,421.75 318.438,421.75 Z" jetway-hook-id="36F3F02C-4107-4CDF-A915-044D1BAD4FE1" id="path1950_1_" fill="#FFCC00" fill-rule="nonzero" opacity="0.529645647"></path>
                <path d="M51.1550192,169.0172 C54.4665337,169.0172 57.1510465,166.512414 57.1510465,163.422605 C57.1510465,160.332796 57.4645473,146.0172 54.1530329,146.0172 C50.8415184,146.0172 45.1589918,160.332796 45.1589918,163.422605 C45.1589918,166.512414 47.8435047,169.0172 51.1550192,169.0172 Z" jetway-hook-id="9115B3E5-59C8-4D22-BC8B-B593E0C8477A" id="Oval" fill="#FFFFFF" transform="translate(51.158992, 157.517200) rotate(38.000000) translate(-51.158992, -157.517200) "></path>
            </g>
        </g>
    </g>
</svg>