<?xml version="1.0" encoding="UTF-8"?>
<svg width="550px" height="457px" viewBox="0 0 550 457" version="1.1" xmlns="http://www.w3.org/2000/svg" xmlns:xlink="http://www.w3.org/1999/xlink" jetway-hooks="{}">
    <!-- Generator: Sketch 59.1 (86144) - https://sketch.com -->
    <title>Pride Doctopus</title>
    <desc>Created with Sketch.</desc>
    <defs>
        <path d="M275.68487,0 C366.535711,0 440.18487,73.6491587 440.18487,164.5 C440.18487,169.684705 439.94501,174.813387 439.475781,179.875556 L440.234408,179.420287 C434.924575,211.350786 435.214965,233.003983 441.10558,244.37988 C444.903525,251.714434 456.089883,252.169712 467.906608,251.5943 C469.110408,251.386478 470.367844,251.149812 471.690513,250.884809 L472.492034,250.722411 L478.985431,249.369735 C479.560378,249.252923 480.098616,249.145632 480.618788,249.044396 L481.133628,248.945049 L482.143751,248.755382 L483.042661,248.592991 C486.901606,247.910011 490.301327,247.496524 493.753009,247.360772 C499.07034,247.151646 504.179273,247.641927 509.259901,248.993588 C536.208183,256.162971 551.633598,275.915782 549.496942,305.054452 C548.362342,320.527582 541.343213,332.694756 530.005343,340.001511 C521.768193,345.309989 512.33141,347.407007 503.561523,347.099991 C493.987057,346.764808 484.75497,342.932376 475.539669,336.317752 C466.141929,329.572176 463.994576,316.492837 470.743421,307.104231 C477.418909,297.817675 490.297856,295.620461 499.671656,302.101786 L499.979399,302.318603 L500.342009,302.57597 C502.015594,303.750205 503.427648,304.549847 504.527285,305.00633 C504.831566,305.132643 505.069509,305.215084 505.238728,305.262186 C505.852599,305.249718 506.570672,305.109531 507.004961,304.950605 L507.138682,304.897085 L507.226753,304.67384 L507.325295,304.365925 C507.499501,303.767707 507.637245,302.982599 507.710345,301.985696 C508.290558,294.073028 506.811314,291.81481 499.487101,289.723698 L499.164963,289.632868 L498.488428,289.44881 C497.677082,289.232958 496.724444,289.141538 495.410566,289.193212 C493.853267,289.254459 493.509541,289.222246 491.054629,289.684312 L490.749694,289.74217 L489.469911,289.992138 L484.34275,291.036755 C474.052764,298.022927 459.186778,303.459182 438.982641,305.046151 C414.950016,306.933836 401.115944,299.057416 393.175391,290.013379 L390.019603,291.552375 C384.880998,302.909827 382.131805,315.432108 381.772023,329.119218 C381.141964,353.088457 391.291794,370.096888 412.221512,380.14451 C418.475512,381.170167 422.979857,379.997047 426.674294,377.272994 C428.269321,376.096919 429.663581,374.640851 430.735733,373.112544 C431.093446,372.602639 431.38893,372.12106 431.608992,371.708087 L431.712678,371.507504 L431.786778,371.354797 C432.959003,367.063969 433.109773,363.898409 432.121153,361.279496 L432.010864,361.000964 L431.629083,361.039561 C423.865326,361.748807 416.06946,357.8551 412.16271,350.547569 C406.954984,340.806574 410.629924,328.688242 420.370918,323.480516 C436.187082,315.024885 452.304081,320.637154 463.051417,335.228265 C469.148431,343.505871 472.22422,352.759455 472.703753,362.405311 C473.050882,369.38784 472.077945,375.852305 470.194996,382.536931 C467.599161,391.752366 460.270607,402.198911 450.412621,409.467587 C437.211285,419.201446 420.448471,422.955457 401.811292,418.861249 C388.034393,415.834746 376.775524,410.051351 367.665374,401.682865 C360.664227,395.251687 355.562267,388.086422 350.487892,378.680892 L350.065051,377.89188 L349.827858,377.444865 C349.195789,376.24969 348.563174,375.02175 347.831592,373.576823 L347.552418,373.024445 L345.484058,368.910962 L344.800239,367.566112 L343.878408,365.78544 C338.358031,355.045517 333.643733,339.907698 329.445954,320.010212 C328.145688,320.463877 326.835805,320.898181 325.518737,321.316352 C323.489415,360.544367 317.423582,390.510327 306.728753,411.727339 C297.214106,430.603041 283.846679,443.274605 267.919077,450.105669 C261.676221,452.783118 255.369119,454.426882 248.981574,455.27725 C244.613742,455.858737 241.296957,456 236.652864,456 C224.886935,456 213.740726,451.394131 203.226469,443.187416 C192.995381,435.201724 191.175128,420.434106 199.160821,410.203018 C207.065849,400.075275 221.616487,398.189309 231.833809,405.89838 L232.145219,406.13737 C233.787858,407.419503 235.161707,408.265047 236.216321,408.733211 L236.422973,408.82183 C236.594469,408.892696 236.733018,408.943145 236.839511,408.977164 L236.913384,408.999661 C242.298403,408.98551 245.631352,408.524245 249.393533,406.910713 C255.092527,404.466516 260.191975,399.632528 264.759199,390.571807 C266.354681,387.406599 267.830654,383.783315 269.181123,379.70717 C270.025328,376.130967 270.59435,372.294888 270.888465,368.198641 C271.89016,354.247658 267.499504,340.856179 257.716498,328.024205 C253.053875,327.52337 248.451051,326.822229 243.914982,325.934665 C243.659052,339.789457 241.947219,350.21604 238.780505,357.213461 C238.195141,358.506929 237.543087,359.781173 236.824345,361.036192 C228.314552,383.840351 196.912664,399.261061 170.979538,391.071653 C162.610641,388.428844 156.052733,384.972466 149.442054,380.220907 L148.780741,379.741416 C147.175469,378.567489 142.615776,375.042286 142.800657,375.182381 L142.165751,374.706085 C139.416936,372.667254 138.078482,372.011341 136.079843,371.611614 C133.596663,371.114977 131.66576,370.917947 130.252213,370.959933 L129.878789,370.976455 L129.535323,371.003961 C129.230281,371.035307 129.037102,371.076776 128.92509,371.115773 L128.880551,371.132901 C128.864827,371.13964 128.814241,371.175962 128.564536,371.447381 C127.878535,372.193034 127.044198,373.489774 126.125828,375.457709 C124.591057,378.746504 124.744323,380.731544 127.071985,384.084433 L127.276835,384.375236 C133.697015,393.363488 131.615181,405.85449 122.626929,412.274669 C113.638678,418.694849 101.147676,416.613016 94.727496,407.624764 C83.9165384,392.489423 82.1237908,375.15953 89.8785026,358.542291 C100.642179,335.47727 119.327956,327.46908 143.924488,332.388386 C148.340476,333.271584 152.133807,334.527413 155.744403,336.252451 L155.68836,336.199053 C166.006689,341.358616 175.187157,341.963477 183.229762,338.013637 C190.470551,334.457581 190.284395,321.852342 182.671295,300.19792 C176.920601,296.248159 171.433786,291.942926 166.24238,287.313451 C155.866534,311.901786 141.784615,325.631514 124,328.5 C112.120338,330.416074 99.80145,330.614565 92,328.5 C91.315816,328.314553 90.591934,328.080647 89.8283538,327.798281 C83.4178227,325.994266 77.1180017,322.753304 71.1044208,318.076075 C69.8760525,317.120677 68.7576865,316.031701 67.7699224,314.829206 L66.8031767,313.659384 L65.8007533,312.461719 C59.833345,305.379631 54.7175556,300.169105 50.6285777,296.897923 C49.349831,295.874926 48.2751977,295.125446 47.4543726,294.639178 L47.2544828,294.523089 C45.8402021,294.562362 44.6037671,294.649542 43.5536262,294.773185 C43.7740143,295.292578 44.0369267,295.859237 44.3458038,296.471301 L44.5366733,296.843973 C49.8838515,307.135757 45.8754565,319.813641 35.5836724,325.160819 C25.2918883,330.507998 12.6140045,326.499603 7.26682625,316.207818 C0.156179137,302.521863 -1.63378822,288.970275 3.72672006,276.474341 C7.93779216,266.657868 15.6888173,259.851204 25.5374328,256.140093 C32.4958212,253.518065 40.12761,252.499678 48.9971737,252.499678 C58.7338011,252.499678 67.6569977,256.734415 76.8657697,264.101433 C80.5731723,267.067355 84.4350215,270.650089 88.4847834,274.862583 C97.9125958,281.876472 105.084064,283.088207 110,278.5 C111.887576,276.738262 113.624905,273.818436 115.07578,270.004175 C115.805019,266.768875 116.334366,263.029921 116.848725,257.901017 L117.568194,250.200262 L117.689087,248.980208 L117.808805,247.837038 C117.90865,246.912415 118.009404,246.052818 118.116399,245.220592 L118.181388,244.72424 C119.139744,237.536567 117.263422,217.835178 112.282901,187.952057 C111.954619,185.982361 111.911957,184.031056 112.124683,182.140467 C111.501825,176.345903 111.18487,170.459966 111.18487,164.5 C111.18487,73.6491587 184.834029,0 275.68487,0 Z" id="path-1"></path>
    </defs>
    <g jetway-hook-id="85E6447B-1202-4846-B89B-6675F60426A8" id="R3" stroke="none" stroke-width="1" fill="none" fill-rule="evenodd">
        <g jetway-hook-id="DEBE3947-71B9-4870-9266-F9CFE2ACDA50" id="Octopus" transform="translate(-4290.000000, -533.000000)">
            <g jetway-hook-id="021DCCBB-E3DB-447C-8E4E-F2DEF42AA47D" id="Pride-Doctopus" transform="translate(4290.000000, 533.000000)">
                <g jetway-hook-id="58F0618A-9B7C-48C4-A1EE-F53EF72D0958" id="Group-3-Copy">
                    <g jetway-hook-id="5D8E7468-2D3E-4353-B7A7-5B400D04CA1F" id="Group-4-Copy-2">
                        <g jetway-hook-id="EFABE3D3-2C27-4160-AC8A-751B4D85E52B" id="Group-4" transform="translate(0.000000, 0.500000)">
                            <mask id="mask-2" fill="white">
                                <use xlink:href="#path-1"></use>
                            </mask>
                            <g jetway-hook-id="A0DFE85C-3CD9-411B-8983-1D5945E3564B" id="Combined-Shape"></g>
                            <rect jetway-hook-id="8418C56D-9515-473C-A11D-D0A4D7CC0966" id="Rectangle" fill="#E8F0FE" mask="url(#mask-2)" x="0" y="-94.5" width="149" height="559"></rect>
                            <rect jetway-hook-id="220CF9D6-13A0-4663-A55E-8B35DAB2EE99" id="Rectangle-Copy-13" fill="#FEF0C3" mask="url(#mask-2)" x="149" y="-80.5" width="97" height="559"></rect>
                            <rect jetway-hook-id="B922A2AD-E253-47F2-84FC-0F23E31163F0" id="Rectangle-Copy-14" fill="#FDDFC8" mask="url(#mask-2)" x="246" y="-80.5" width="113" height="559"></rect>
                            <rect jetway-hook-id="BAAA69C0-1E47-413B-A946-301EE81D17A7" id="Rectangle-Copy-15" fill="#FCCFE8" mask="url(#mask-2)" x="359" y="-80.5" width="91" height="559"></rect>
                            <rect jetway-hook-id="6BA2032C-1096-4AA3-9031-3BF1ADA696CB" id="Rectangle-Copy-16" fill="#E9D1FD" mask="url(#mask-2)" x="449" y="-80.5" width="101" height="559"></rect>
                        </g>
                        <g jetway-hook-id="F7D1B26C-86FC-4674-8A8A-F3EF97EEE2A5" id="Group" transform="translate(290.000000, 145.000000)"></g>
                        <g jetway-hook-id="65C87745-3C1C-4C46-A059-1D87142D6699" id="Group-Copy" transform="translate(180.184870, 145.000000)"></g>
                    </g>
                </g>
                <circle jetway-hook-id="C77A9122-02D6-4686-9809-93CC90DC8ED7" id="Oval-Copy-2" fill="#A139F4" cx="305.692914" cy="160" r="15"></circle>
                <circle jetway-hook-id="30724E3C-E471-41F0-959D-1D2F1629086A" id="Oval-Copy-3" fill="#A139F4" cx="196" cy="160" r="15"></circle>
                <path d="M226.18487,214 L232.802926,217.382685 C246.747625,224.510233 263.513531,223.20292 276.18487,214 L276.18487,214 L276.18487,214" jetway-hook-id="5DC24EE5-ABC2-463A-9303-97D0D02B374B" id="Path-6-Copy" stroke="#A139F4" stroke-width="8" stroke-linecap="round"></path>
                <circle jetway-hook-id="D9939C08-DA61-4B6E-8D82-FF72AC4E732A" id="Oval-Copy-4" fill="#A139F4" opacity="0.264462426" cx="340.18487" cy="218" r="29"></circle>
                <circle jetway-hook-id="229BD809-9DD1-430E-91F3-9E08CCD0E25C" id="Oval-Copy-5" fill="#A139F4" opacity="0.264462426" cx="162.18487" cy="214" r="29"></circle>
            </g>
        </g>
    </g>
</svg>