<?xml version="1.0" encoding="UTF-8"?>
<svg width="550px" height="457px" viewBox="0 0 550 457" version="1.1" xmlns="http://www.w3.org/2000/svg" xmlns:xlink="http://www.w3.org/1999/xlink" jetway-hooks="{}">
    <!-- Generator: Sketch 59.1 (86144) - https://sketch.com -->
    <title>Yellow Doctopus</title>
    <desc>Created with Sketch.</desc>
    <g jetway-hook-id="85E6447B-1202-4846-B89B-6675F60426A8" id="R3" stroke="none" stroke-width="1" fill="none" fill-rule="evenodd">
        <g jetway-hook-id="DEBE3947-71B9-4870-9266-F9CFE2ACDA50" id="Octopus" transform="translate(-1856.000000, -533.000000)">
            <g jetway-hook-id="C33C19F4-18D9-43EC-87DD-558BEE4B35C0" id="Yellow-Doctopus" transform="translate(1856.000000, 533.000000)">
                <g jetway-hook-id="770EE001-4AC9-40A2-992D-9E321609FF52" id="Group-4-Copy-2">
                    <circle jetway-hook-id="EAFFFD1D-8BFB-4BCE-828B-468A6D4F0B83" id="Oval" fill="#FEF0C3" cx="275.68487" cy="165" r="164.5"></circle>
                    <path d="M406.5,267.5 C390.656376,284.500965 382.413717,305.207371 381.772023,329.619218 C381.141964,353.588457 391.291794,370.596888 412.221512,380.64451 C418.475512,381.670167 422.979857,380.497047 426.674294,377.772994 C428.269321,376.596919 429.663581,375.140851 430.735733,373.612544 C431.153065,373.017655 431.485695,372.46132 431.712678,372.007504 L431.712678,372.007504 L431.786778,371.854797 C433.000868,367.410725 433.119239,364.173733 432.010864,361.500964 L432.010864,361.500964 L431.629083,361.539561 C423.865326,362.248807 416.06946,358.3551 412.16271,351.047569 C406.954984,341.306574 410.629924,329.188242 420.370918,323.980516 C436.187082,315.524885 452.304081,321.137154 463.051417,335.728265 C469.148431,344.005871 472.22422,353.259455 472.703753,362.905311 C473.050882,369.88784 472.077945,376.352305 470.194996,383.036931 C467.599161,392.252366 460.270607,402.698911 450.412621,409.967587 C437.211285,419.701446 420.448471,423.455457 401.811292,419.361249 C388.034393,416.334746 376.775524,410.551351 367.665374,402.182865 C360.469751,395.573043 355.280291,388.187785 350.065051,378.39188 L350.065051,378.39188 L349.827858,377.944865 C349.116781,376.600293 348.405011,375.214253 347.552418,373.524445 L347.552418,373.524445 L345.484058,369.410962 L344.800239,368.066112 L343.878408,366.28544 C337.657692,354.183004 332.460554,336.496018 327.872657,312.706818 L327.872657,312.706818 L327.480891,310.652788 L327.102523,308.625515 C325.709198,301.080612 328.747616,293.743424 334.373663,289.293442 C334.130884,285.016508 333.929672,280.409941 333.769971,275.475658 L333.769971,275.475658 Z" jetway-hook-id="E669CDC5-E120-4D48-97F8-E90499600CD0" id="Combined-Shape" fill="#FEF0C3" fill-rule="nonzero"></path>
                    <path d="M412.887791,105.835676 C424.231034,108.115771 431.578802,119.15183 429.29949,130.485404 C424.314551,155.272349 421.162983,175.913797 419.750313,192.100322 L440.234408,179.920287 C434.924575,211.850786 435.214965,233.503983 441.10558,244.87988 C444.903525,252.214434 456.089883,252.669712 467.906608,252.0943 C469.110408,251.886478 470.367844,251.649812 471.690513,251.384809 L472.492034,251.222411 L478.985431,249.869735 C479.560378,249.752923 480.098616,249.645632 480.618788,249.544396 L481.133628,249.445049 L482.143751,249.255382 L483.042661,249.092991 C486.901606,248.410011 490.301327,247.996524 493.753009,247.860772 C499.07034,247.651646 504.179273,248.141927 509.259901,249.493588 C536.208183,256.662971 551.633598,276.415782 549.496942,305.554452 C548.362342,321.027582 541.343213,333.194756 530.005343,340.501511 C521.768193,345.809989 512.33141,347.907007 503.561523,347.599991 C493.987057,347.264808 484.75497,343.432376 475.539669,336.817752 C466.141929,330.072176 463.994576,316.992837 470.743421,307.604231 C477.418909,298.317675 490.297856,296.120461 499.671656,302.601786 L499.979399,302.818603 L500.342009,303.07597 C502.015594,304.250205 503.427648,305.049847 504.527285,305.50633 C504.831566,305.632643 505.069509,305.715084 505.238728,305.762186 C505.852599,305.749718 506.570672,305.609531 507.004961,305.450605 L507.138682,305.397085 L507.226753,305.17384 L507.325295,304.865925 C507.499501,304.267707 507.637245,303.482599 507.710345,302.485696 C508.290558,294.573028 506.811314,292.31481 499.487101,290.223698 L499.164963,290.132868 L498.488428,289.94881 C497.677082,289.732958 496.724444,289.641538 495.410566,289.693212 C493.853267,289.754459 493.509541,289.722246 491.054629,290.184312 L490.749694,290.24217 L489.469911,290.492138 L484.34275,291.536755 C474.052764,298.522927 459.186778,303.959182 438.982641,305.546151 C414.950016,307.433836 401.115944,299.557416 393.175391,290.513379 L378.261018,297.787971 L370.370337,281.609678 L384.310747,274.809352 C383.166815,271.326762 382.766629,268.743535 382.650924,267.976756 C381.324857,259.188909 380.276447,248.272161 379.505692,235.226513 L379.40317,234.787024 C374.553378,213.572444 377.177137,179.281724 386.689848,130.000164 L386.98022,128.502193 L387.585887,125.416584 L388.221973,122.228448 C390.501284,110.894875 401.544547,103.555581 412.887791,105.835676 Z" jetway-hook-id="4EB24881-73D2-4648-88B5-BB57952B68EE" id="Combined-Shape" fill="#FEF0C3" fill-rule="nonzero"></path>
                    <path d="M153.711446,181.547299 L154.376667,185.584746 L154.829715,188.392705 C159.618588,218.349489 161.366669,238.406292 159.86306,250.387898 L159.735643,251.376681 L159.619074,252.365725 C159.540589,253.064152 159.459915,253.845975 159.373195,254.742779 L158.903709,259.838188 C158.72935,261.727198 158.552995,263.503035 158.368563,265.188561 L171,275 C160.333333,307.666667 144.666667,325.666667 124,329 C112.120338,330.916074 99.80145,331.114565 92,329 C91.315816,328.814553 90.591934,328.580647 89.8283538,328.298281 C83.4178227,326.494266 77.1180017,323.253304 71.1044208,318.576075 C69.8760525,317.620677 68.7576865,316.531701 67.7699224,315.329206 L66.8031767,314.159384 L65.8007533,312.961719 C59.833345,305.879631 54.7175556,300.669105 50.6285777,297.397923 C49.349831,296.374926 48.2751977,295.625446 47.4543726,295.139178 L47.2544828,295.023089 C45.8402021,295.062362 44.6037671,295.149542 43.5536262,295.273185 C43.7740143,295.792578 44.0369267,296.359237 44.3458038,296.971301 L44.5366733,297.343973 C49.8838515,307.635757 45.8754565,320.313641 35.5836724,325.660819 C25.2918883,331.007998 12.6140045,326.999603 7.26682625,316.707818 C0.156179137,303.021863 -1.63378822,289.470275 3.72672006,276.974341 C7.93779216,267.157868 15.6888173,260.351204 25.5374328,256.640093 C32.4958212,254.018065 40.12761,252.999678 48.9971737,252.999678 C58.7338011,252.999678 67.6569977,257.234415 76.8657697,264.601433 C80.5731723,267.567355 84.4350215,271.150089 88.4847834,275.362583 C97.9125958,282.376472 105.084064,283.588207 110,279 C111.887576,277.238262 113.624905,274.318436 115.07578,270.504175 C115.805019,267.268875 116.334366,263.529921 116.848725,258.401017 L117.568194,250.700262 L117.689087,249.480208 L117.808805,248.337038 C117.90865,247.412415 118.009404,246.552818 118.116399,245.720592 L118.181388,245.22424 C119.139744,238.036567 117.263422,218.335178 112.282901,188.452057 C110.376205,177.01188 118.104618,166.192102 129.544795,164.285406 C140.984972,162.378709 151.80475,170.107123 153.711446,181.547299 Z" jetway-hook-id="6B1E149B-DC0A-481F-8837-65DC2D032382" id="Combined-Shape" fill="#FEF0C3" fill-rule="nonzero"></path>
                    <path d="M236.404094,296.652258 L242.744773,297.043894 C245.212373,326.197828 243.89095,346.421017 238.780505,357.713461 C238.195141,359.006929 237.543087,360.281173 236.824345,361.536192 C228.314552,384.340351 196.912664,399.761061 170.979538,391.571653 C162.610641,388.928844 156.052733,385.472466 149.442054,380.720907 L148.780741,380.241416 C147.175469,379.067489 142.615776,375.542286 142.800657,375.682381 L142.165751,375.206085 C139.416936,373.167254 138.078482,372.511341 136.079843,372.111614 C133.596663,371.614977 131.66576,371.417947 130.252213,371.459933 L129.878789,371.476455 L129.535323,371.503961 C129.230281,371.535307 129.037102,371.576776 128.92509,371.615773 L128.880551,371.632901 C128.864827,371.63964 128.814241,371.675962 128.564536,371.947381 C127.878535,372.693034 127.044198,373.989774 126.125828,375.957709 C124.591057,379.246504 124.744323,381.231544 127.071985,384.584433 L127.276835,384.875236 C133.697015,393.863488 131.615181,406.35449 122.626929,412.774669 C113.638678,419.194849 101.147676,417.113016 94.727496,408.124764 C83.9165384,392.989423 82.1237908,375.65953 89.8785026,359.042291 C100.642179,335.97727 119.327956,327.96908 143.924488,332.888386 C148.340476,333.771584 152.133807,335.027413 155.744403,336.752451 L155.68836,336.699053 C166.006689,341.858616 175.187157,342.463477 183.229762,338.513637 C191.272368,334.563797 190.152094,319.449667 179.868942,293.171245 L200.705508,294.454539 C203.957795,288.866482 209.854497,284.957101 216.792264,284.53663 C225.464481,284.011041 233.1803,289.093435 236.404094,296.652258 Z" jetway-hook-id="AA69E355-5F05-4C2D-B4EC-602F9EFEF366" id="Combined-Shape" fill="#FEF0C3" fill-rule="nonzero"></path>
                    <path d="M303.110266,278.503833 C316.086841,278.738235 326.416413,289.447848 326.182011,302.424422 C325.29901,351.30762 319.121738,387.641427 306.728753,412.227339 C297.214106,431.103041 283.846679,443.774605 267.919077,450.605669 C261.676221,453.283118 255.369119,454.926882 248.981574,455.77725 C244.613742,456.358737 241.296957,456.5 236.652864,456.5 C224.886935,456.5 213.740726,451.894131 203.226469,443.687416 C192.995381,435.701724 191.175128,420.934106 199.160821,410.703018 C207.065849,400.575275 221.616487,398.689309 231.833809,406.39838 L232.145219,406.63737 C233.787858,407.919503 235.161707,408.765047 236.216321,409.233211 L236.422973,409.32183 C236.594469,409.392696 236.733018,409.443145 236.839511,409.477164 L236.913384,409.499661 C242.298403,409.48551 245.631352,409.024245 249.393533,407.410713 C255.092527,404.966516 260.191975,400.132528 264.759199,391.071807 C266.354681,387.906599 267.830654,384.283315 269.181123,380.20717 C270.025328,376.630967 270.59435,372.794888 270.888465,368.698641 C272.147441,351.164401 264.888324,334.513989 249.111114,318.747404 L278.758174,315.632115 C278.957834,311.108368 279.102125,306.422458 279.189677,301.575578 C279.424079,288.599003 290.133691,278.269431 303.110266,278.503833 Z" jetway-hook-id="678D350A-6C03-4B18-8BBC-6A6AC1013CEE" id="Combined-Shape" fill="#FEF0C3" fill-rule="nonzero"></path>
                    <g jetway-hook-id="351FF21D-E52A-475C-9538-8E056AE09E09" id="Group" transform="translate(290.000000, 145.000000)"></g>
                    <g jetway-hook-id="2FFDD3BC-6AA1-4FC3-AC97-DA2B6156C9A5" id="Group-Copy" transform="translate(180.184870, 145.000000)"></g>
                </g>
                <circle jetway-hook-id="69B538D4-A3CF-4634-A25B-91EE3803E79F" id="Oval" fill="#FABD04" cx="306" cy="160" r="15"></circle>
                <circle jetway-hook-id="016A78E4-CC50-467C-98FD-81133DBABF0F" id="Oval" fill="#FABD04" cx="196" cy="160" r="15"></circle>
                <path d="M226,214 L232.618056,217.382685 C246.562755,224.510233 263.328661,223.20292 276,214 L276,214 L276,214" jetway-hook-id="5E41C01B-7931-4F39-AE0E-4A7B9D6A1958" id="Path-6" stroke="#FABD04" stroke-width="8" stroke-linecap="round"></path>
                <circle jetway-hook-id="271ECF10-6073-4214-BFA9-1BAA8EFEDAF2" id="Oval" fill="#FABD04" opacity="0.264462426" cx="340" cy="218" r="29"></circle>
                <circle jetway-hook-id="E2E4C995-EA50-4569-9197-1E253FEBF737" id="Oval-Copy" fill="#FABD04" opacity="0.264462426" cx="162" cy="214" r="29"></circle>
                <path d="M164.5,71 C166.432997,71 168,68.1592539 168,64.655016 C168,61.1507781 167.12478,48 165.191783,48 C163.258786,48 161,61.1507781 161,64.655016 C161,68.1592539 162.567003,71 164.5,71 Z" jetway-hook-id="2D431CAE-D88C-4FE2-BC15-36C6DDAF7E8B" id="Oval-Copy-6" fill="#FFFFFF" transform="translate(164.500000, 59.500000) rotate(38.000000) translate(-164.500000, -59.500000) "></path>
            </g>
        </g>
    </g>
</svg>