<?xml version="1.0" encoding="UTF-8"?>
<svg width="430px" height="490px" viewBox="0 0 430 490" version="1.1" xmlns="http://www.w3.org/2000/svg" xmlns:xlink="http://www.w3.org/1999/xlink" jetway-hooks="{}">
    <!-- Generator: Sketch 59.1 (86144) - https://sketch.com -->
    <title>Birthday Cake</title>
    <desc>Created with Sketch.</desc>
    <g jetway-hook-id="85E6447B-1202-4846-B89B-6675F60426A8" id="R3" stroke="none" stroke-width="1" fill="none" fill-rule="evenodd">
        <g jetway-hook-id="D3B6EF8C-CEA8-4956-81C7-3EB1CA69E940" id="Accessories" transform="translate(-4417.000000, -1068.000000)">
            <g jetway-hook-id="0606DA6B-4126-4457-B874-B5EB3B8D6DB8" id="Birthday-Cake" transform="translate(4417.000000, 1057.000000)">
                <g jetway-hook-id="A391DDDE-D6CA-493A-B39C-26043CA7029A" id="Group-26" transform="translate(0.000000, 177.000000)">
                    <rect jetway-hook-id="559B2936-15B3-4F14-95CE-FD1AF6DFF4D8" id="Rectangle" fill="#2FC0E0" opacity="0.197777158" x="0" y="216" width="429" height="82" rx="41"></rect>
                    <path d="M386,0 C408.643675,-4.15957557e-15 427,18.3563253 427,41 C427,63.6436747 408.643675,82 386,82 L333.149309,82.0009465 C330.948723,85.0004962 327.002343,87 322.5,87 C317.997657,87 314.051277,85.0004962 311.850691,82.0009465 L309.990547,82.000753 C309.71738,89.2246009 303.558128,95 296,95 C288.441872,95 282.28262,89.2246009 282.009453,82.000753 L130.78904,82.0004824 C128.605213,86.714692 123.700478,90 118,90 C112.299522,90 107.394787,86.714692 105.21096,82.0004824 L41,82 C18.3563253,82 2.77305038e-15,63.6436747 0,41 C-2.77305038e-15,18.3563253 18.3563253,-2.94585179e-15 41,0 L386,0 Z" jetway-hook-id="6DDF7815-95D3-4175-BBD5-FCE19B785B27" id="Combined-Shape" fill="#F334A0" opacity="0.246210007"></path>
                    <path d="M389,108 C411.643675,108 430,126.356325 430,149 C430,171.643675 411.643675,190 389,190 L374.720013,190.001161 C368.843836,198.943633 357.513325,205 344.5,205 C331.486675,205 320.156164,198.943633 314.279987,190.001161 L312.990547,190.000753 C312.71738,197.224601 306.558128,203 299,203 C291.441872,203 285.28262,197.224601 285.009453,190.000753 L210.599095,190.000721 C201.568829,199.232997 188.736249,205 174.5,205 C160.263751,205 147.431171,199.232997 138.400905,190.000721 L44,190 C21.3563253,190 3,171.643675 3,149 C3,126.356325 21.3563253,108 44,108 L389,108 Z" jetway-hook-id="24371600-CC70-4EA8-B09F-65607C4CBA4F" id="Combined-Shape-Copy" fill="#FABD04" opacity="0.397484189"></path>
                    <rect jetway-hook-id="2DB512D5-AE95-4573-B71C-62D161769F5B" id="Rectangle" fill="#FABD04" opacity="0.268484933" x="46" y="190" width="337" height="26"></rect>
                    <rect jetway-hook-id="B78C6C92-1834-479E-AAEC-904D3831A5BA" id="Rectangle-Copy-18" fill="#FABD04" opacity="0.268484933" x="48" y="298" width="336" height="26"></rect>
                    <rect jetway-hook-id="982B9E18-7FA2-4CEB-91EB-B50DCA6D2F6A" id="Rectangle-Copy-19" fill="#FABD04" opacity="0.268484933" x="46" y="82" width="336" height="26"></rect>
                </g>
                <path d="M215.5,102 C233.449254,102 248,87.4492544 248,69.5 C248,59.630217 240.743393,42.1406582 226.230178,17.0313235 L226.230181,17.031322 C222.913672,11.293426 215.573627,9.33050338 209.835731,12.6470117 C208.063903,13.67113 206.583428,15.1313727 205.535028,16.8889427 C190.511676,42.0745533 183,59.6115724 183,69.5 C183,87.4492544 197.550746,102 215.5,102 Z" jetway-hook-id="ED484AC6-CFB7-4503-9082-0F722062E84F" id="Oval" fill="#F87C17" opacity="0.393508185"></path>
                <path d="M215.5,102 C224.612698,102 232,94.7246272 232,85.75 C232,82.2014712 230.095085,76.6829995 226.285254,69.1945849 L226.285254,69.194585 C223.280045,63.2876932 216.055359,60.9354151 210.148467,63.9406248 C207.935882,65.0663068 206.126871,66.8504902 204.970721,69.0473085 C200.99024,76.6106841 199,82.178248 199,85.75 C199,94.7246272 206.387302,102 215.5,102 Z" jetway-hook-id="85F314AE-6D62-482D-8AA4-0F6CB4A6BCD1" id="Oval" fill="#F87C17" opacity="0.393508185"></path>
                <path d="M215.5,112 C229.030976,112 240,122.969024 240,136.5 L240,177 L240,177 L191,177 L191,136.5 C191,122.969024 201.969024,112 215.5,112 Z" jetway-hook-id="D310651C-EE99-4430-BA82-0A188C80BC1B" id="Rectangle" fill-opacity="0.385653409" fill="#FABD04"></path>
                <path d="M204,145 C206.485281,145 208,132.985281 208,130.5 C208,128.014719 205.985281,126 203.5,126 C201.014719,126 199,128.014719 199,130.5 C199,132.985281 201.514719,145 204,145 Z" jetway-hook-id="A668B98D-C259-4D32-906C-F3C9E69222B7" id="Oval" fill="#FFFFFF" transform="translate(203.500000, 135.500000) rotate(11.000000) translate(-203.500000, -135.500000) "></path>
                <path d="M43,212 C47.9705627,212 62,207.970563 62,203 C62,198.029437 47.9705627,194 43,194 C38.0294373,194 34,198.029437 34,203 C34,207.970563 38.0294373,212 43,212 Z" jetway-hook-id="5F1C8A3D-8ED2-476A-AD09-6E49AA9563BA" id="Oval" fill="#FFFFFF"></path>
                <path d="M43,322 C47.9705627,322 62,317.970563 62,313 C62,308.029437 47.9705627,304 43,304 C38.0294373,304 34,308.029437 34,313 C34,317.970563 38.0294373,322 43,322 Z" jetway-hook-id="A3B065E1-409D-4E16-9A59-8D2E16FFB835" id="Oval-Copy-50" fill="#FFFFFF"></path>
                <path d="M43,423 C47.9705627,423 62,418.970563 62,414 C62,409.029437 47.9705627,405 43,405 C38.0294373,405 34,409.029437 34,414 C34,418.970563 38.0294373,423 43,423 Z" jetway-hook-id="EA645A23-DCCA-4E59-9B65-AAF91EC08DC1" id="Oval-Copy-51" fill="#FFFFFF"></path>
            </g>
        </g>
    </g>
</svg>