<?xml version="1.0" encoding="UTF-8"?>
<svg width="289px" height="211px" viewBox="0 0 289 211" version="1.1" xmlns="http://www.w3.org/2000/svg" xmlns:xlink="http://www.w3.org/1999/xlink" jetway-hooks="{}">
    <!-- Generator: Sketch 59.1 (86144) - https://sketch.com -->
    <title>Crown</title>
    <desc>Created with Sketch.</desc>
    <g jetway-hook-id="85E6447B-1202-4846-B89B-6675F60426A8" id="R3" stroke="none" stroke-width="1" fill="none" fill-rule="evenodd">
        <g jetway-hook-id="D3B6EF8C-CEA8-4956-81C7-3EB1CA69E940" id="Accessories" transform="translate(-1849.000000, -1943.000000)">
            <g jetway-hook-id="C64A32D3-B2CA-45A0-B312-C9613FC10D84" id="Crown" transform="translate(1849.000000, 1943.000000)">
                <path d="M289,169.713669 C289,192.056836 270.887285,210.169552 248.544118,210.169552 L40.4558824,210.169552 C18.1127155,210.169552 2.73624878e-15,192.056836 0,169.713669 L0,95.8046838 C-9.46895252e-16,88.0726973 6.2680135,81.8046838 14,81.8046838 C14.8013428,81.8046838 15.6012061,81.8734854 16.3907779,82.0103306 L99.0779562,96.3416281 C99.8180638,93.9359972 100.752412,91.5865523 101.875426,89.3171279 L132.319901,27.7939176 C135.749144,20.8639892 144.146912,18.0261229 151.07684,21.4553658 C153.863019,22.8340935 156.111077,25.1009223 157.466589,27.8984691 L187.296449,89.4622226 C188.173804,91.272935 188.931673,93.1333105 189.567306,95.031373 L272.794532,81.7547333 C280.429975,80.5366873 287.607145,85.7390147 288.825191,93.374457 C288.941548,94.1038506 289,94.8413085 289,95.5799246 L289,169.713669 Z" jetway-hook-id="012A1F17-4FC3-40E4-B89C-E92EE2DDC6DA" id="Combined-Shape" fill="#FABD04" opacity="0.288713728"></path>
                <circle jetway-hook-id="4E96E919-E56A-4323-AD0B-A6DDDE2441BB" id="Oval" fill="#F87C17" opacity="0.506324405" cx="139.5" cy="127.5" r="24.5"></circle>
                <ellipse jetway-hook-id="7D899856-AC31-4986-9E1F-4218B00C1285" id="Oval" fill="#FFFFFF" cx="127.5" cy="117" rx="2.5" ry="3"></ellipse>
                <path d="M146,56 C155.388841,56 163,48.3888407 163,39 C163,29.6111593 155.388841,0 146,0 C136.611159,0 129,29.6111593 129,39 C129,48.3888407 136.611159,56 146,56 Z" jetway-hook-id="BB55FFCF-1C3B-488D-AF70-CDFE343D9734" id="Oval-Copy-10" fill="#FABD04" opacity="0.495837984"></path>
                <path d="M51.5,196 C53.9852814,196 56,193.961297 56,191.446429 C56,188.931561 53.9852814,181 51.5,181 C49.0147186,181 47,188.931561 47,191.446429 C47,193.961297 49.0147186,196 51.5,196 Z" jetway-hook-id="672B8AD9-6EC2-4110-A9BF-D30D2643DEC2" id="Oval-Copy-14" fill="#FABD04" opacity="0.495837984" transform="translate(51.500000, 188.500000) scale(1, -1) translate(-51.500000, -188.500000) "></path>
                <path d="M105.5,196 C107.985281,196 110,193.961297 110,191.446429 C110,188.931561 107.985281,181 105.5,181 C103.014719,181 101,188.931561 101,191.446429 C101,193.961297 103.014719,196 105.5,196 Z" jetway-hook-id="843CDA4E-5F28-47DF-8751-E4A733392909" id="Oval-Copy-15" fill="#FABD04" opacity="0.495837984" transform="translate(105.500000, 188.500000) scale(1, -1) translate(-105.500000, -188.500000) "></path>
                <path d="M159.5,196 C161.985281,196 164,193.961297 164,191.446429 C164,188.931561 161.985281,181 159.5,181 C157.014719,181 155,188.931561 155,191.446429 C155,193.961297 157.014719,196 159.5,196 Z" jetway-hook-id="E67D439A-71F1-4D52-8CBE-C073AEBC04D5" id="Oval-Copy-17" fill="#FABD04" opacity="0.495837984" transform="translate(159.500000, 188.500000) scale(1, -1) translate(-159.500000, -188.500000) "></path>
                <path d="M17,103 C26.3888407,103 34,95.3888407 34,86 C34,76.6111593 26.3888407,47 17,47 C7.61115925,47 0,76.6111593 0,86 C0,95.3888407 7.61115925,103 17,103 Z" jetway-hook-id="CE3836F4-6496-4506-9E60-E3E63914EAFE" id="Oval-Copy-11" fill="#FABD04" opacity="0.495837984"></path>
                <path d="M24.5,196 C26.9852814,196 29,193.961297 29,191.446429 C29,188.931561 26.9852814,181 24.5,181 C22.0147186,181 20,188.931561 20,191.446429 C20,193.961297 22.0147186,196 24.5,196 Z" jetway-hook-id="AB38C6B4-3A1A-4C84-95C4-ECE77B898766" id="Oval-Copy-13" fill="#FABD04" opacity="0.495837984" transform="translate(24.500000, 188.500000) scale(1, -1) translate(-24.500000, -188.500000) "></path>
                <path d="M78.5,196 C80.9852814,196 83,193.961297 83,191.446429 C83,188.931561 80.9852814,181 78.5,181 C76.0147186,181 74,188.931561 74,191.446429 C74,193.961297 76.0147186,196 78.5,196 Z" jetway-hook-id="51EA8C6D-8FEB-4979-B700-AF698758E202" id="Oval-Copy-16" fill="#FABD04" opacity="0.495837984" transform="translate(78.500000, 188.500000) scale(1, -1) translate(-78.500000, -188.500000) "></path>
                <path d="M132.5,196 C134.985281,196 137,193.961297 137,191.446429 C137,188.931561 134.985281,181 132.5,181 C130.014719,181 128,188.931561 128,191.446429 C128,193.961297 130.014719,196 132.5,196 Z" jetway-hook-id="48D68F04-1844-46AA-B352-D3675A9C20F2" id="Oval-Copy-18" fill="#FABD04" opacity="0.495837984" transform="translate(132.500000, 188.500000) scale(1, -1) translate(-132.500000, -188.500000) "></path>
                <path d="M186.5,196 C188.985281,196 191,193.961297 191,191.446429 C191,188.931561 188.985281,181 186.5,181 C184.014719,181 182,188.931561 182,191.446429 C182,193.961297 184.014719,196 186.5,196 Z" jetway-hook-id="C5267728-2C2C-47FF-B43D-2F1687C140CA" id="Oval-Copy-15" fill="#FABD04" opacity="0.495837984" transform="translate(186.500000, 188.500000) scale(1, -1) translate(-186.500000, -188.500000) "></path>
                <path d="M240.5,196 C242.985281,196 245,193.961297 245,191.446429 C245,188.931561 242.985281,181 240.5,181 C238.014719,181 236,188.931561 236,191.446429 C236,193.961297 238.014719,196 240.5,196 Z" jetway-hook-id="4ADEF156-F567-4AA4-8654-34E2DACF7856" id="Oval-Copy-17" fill="#FABD04" opacity="0.495837984" transform="translate(240.500000, 188.500000) scale(1, -1) translate(-240.500000, -188.500000) "></path>
                <path d="M265.5,196 C267.985281,196 270,193.961297 270,191.446429 C270,188.931561 267.985281,181 265.5,181 C263.014719,181 261,188.931561 261,191.446429 C261,193.961297 263.014719,196 265.5,196 Z" jetway-hook-id="941FD46C-4012-4C45-8643-680A56A13262" id="Oval-Copy-19" fill="#FABD04" opacity="0.495837984" transform="translate(265.500000, 188.500000) scale(1, -1) translate(-265.500000, -188.500000) "></path>
                <path d="M213.5,196 C215.985281,196 218,193.961297 218,191.446429 C218,188.931561 215.985281,181 213.5,181 C211.014719,181 209,188.931561 209,191.446429 C209,193.961297 211.014719,196 213.5,196 Z" jetway-hook-id="132BE0F3-AB5D-4B6A-B5F3-525DA7448787" id="Oval-Copy-18" fill="#FABD04" opacity="0.495837984" transform="translate(213.500000, 188.500000) scale(1, -1) translate(-213.500000, -188.500000) "></path>
                <path d="M272,109 C281.388841,109 289,101.388841 289,92 C289,82.6111593 281.388841,53 272,53 C262.611159,53 255,82.6111593 255,92 C255,101.388841 262.611159,109 272,109 Z" jetway-hook-id="2257889F-0712-4009-8839-3A0A6EEBD433" id="Oval-Copy-12" fill="#FABD04" opacity="0.495837984"></path>
                <path d="M6,145 C8.209139,145 10,125.313708 10,122 C10,118.686292 8.209139,116 6,116 C3.790861,116 2,118.686292 2,122 C2,125.313708 3.790861,145 6,145 Z" jetway-hook-id="9324FB8A-51D5-4B89-AB97-4A3F41FBC4C8" id="Oval" fill="#FFFFFF"></path>
            </g>
        </g>
    </g>
</svg>