<?xml version="1.0" encoding="UTF-8"?>
<svg width="245px" height="228px" viewBox="0 0 245 228" version="1.1" xmlns="http://www.w3.org/2000/svg" xmlns:xlink="http://www.w3.org/1999/xlink" jetway-hooks="{}">
    <!-- Generator: Sketch 59.1 (86144) - https://sketch.com -->
    <title>Flowers</title>
    <desc>Created with Sketch.</desc>
    <g jetway-hook-id="85E6447B-1202-4846-B89B-6675F60426A8" id="R3" stroke="none" stroke-width="1" fill="none" fill-rule="evenodd">
        <g jetway-hook-id="D3B6EF8C-CEA8-4956-81C7-3EB1CA69E940" id="Accessories" transform="translate(-380.000000, -1886.000000)">
            <g jetway-hook-id="78C9A818-A1D7-4894-87DC-BEB9ED712C61" id="Flowers" transform="translate(242.000000, 1784.000000)">
                <g jetway-hook-id="6F4B39D0-0172-475E-A859-C2F4FF7CD8D2" id="Group-8" transform="translate(214.500000, 252.957364) rotate(-22.000000) translate(-214.500000, -252.957364) translate(50.000000, 88.457364)">
                    <g jetway-hook-id="A0F3E1C4-9ACE-44EC-8522-DD398C555E15" id="Group-7-Copy" transform="translate(164.269073, 164.926951) rotate(31.000000) translate(-164.269073, -164.926951) translate(44.769073, 45.426951)">
                        <path d="M119.395161,179.092742 L103.020611,187.701353 C88.3552733,195.411377 70.2164586,189.772981 62.5064344,175.107644 C59.4362623,169.267829 58.3768221,162.578787 59.4921274,156.076058 L62.6193882,137.842728 L62.6193882,137.842728 L49.3720987,124.929812 C37.5075913,113.364776 37.2648221,94.3713781 48.8298585,82.5068707 C53.4351166,77.7823617 59.469389,74.7077463 65.9984999,73.759011 L84.3058038,71.098804 L84.3058038,71.098804 L92.493079,54.5095725 C99.8257478,39.6519627 117.814523,33.5517928 132.672133,40.8844616 C138.588511,43.8043687 143.377336,48.5931944 146.297244,54.5095725 L154.484519,71.098804 L154.484519,71.098804 L172.791823,73.759011 C189.188169,76.1415395 200.548612,91.3648251 198.166084,107.761171 C197.217348,114.290282 194.142733,120.324554 189.418224,124.929812 L176.170934,137.842728 L176.170934,137.842728 L179.298195,156.076058 C182.099025,172.406151 171.131391,187.914829 154.801297,190.71566 C148.298568,191.830965 141.609526,190.771525 135.769712,187.701353 L119.395161,179.092742 L119.395161,179.092742 Z" jetway-hook-id="A900EBA2-B66E-4345-8281-65412341DEF7" id="Star" fill="#FF00A3" opacity="0.326543899"></path>
                        <path d="M102.091918,74.2107457 C105.388924,74.2107457 109.114772,62.94664 109.114772,58.4583968 C109.114772,53.9701535 106.44202,50.3317135 103.145014,50.3317135 C99.8480078,50.3317135 97.175256,53.9701535 97.175256,58.4583968 C97.175256,62.94664 98.7949114,74.2107457 102.091918,74.2107457 Z" jetway-hook-id="0A90FFEE-C984-4345-8868-07DEC487DC29" id="Oval-Copy-3" fill="#FFFFFF" transform="translate(103.145014, 62.271230) scale(-1, 1) rotate(-39.000000) translate(-103.145014, -62.271230) "></path>
                        <circle jetway-hook-id="F5D3C87E-4273-4671-A5A7-CFAF3C719799" id="Oval" fill="#FFE6F4" opacity="0.576288132" cx="120.058468" cy="120.058468" r="24.5423387"></circle>
                    </g>
                </g>
                <g jetway-hook-id="91564202-0318-4066-ABE8-6EEC603F5C89" id="Group-8-Copy" transform="translate(323.199502, 162.000000) rotate(-22.000000) translate(-323.199502, -162.000000) translate(199.199502, 38.000000)">
                    <g jetway-hook-id="6C16E00D-7BD0-4679-9124-151ADAA2D3E7" id="Group-7-Copy" transform="translate(123.798890, 124.213394) rotate(31.000000) translate(-123.798890, -124.213394) translate(33.798890, 34.213394)">
                        <path d="M90,135 L80.142659,140.182311 C68.4103889,146.35033 53.8993372,141.839614 47.7313178,130.107344 C45.2751801,125.435492 44.4276279,120.084258 45.3198721,114.882075 L47.2024568,103.905765 L47.2024568,103.905765 L39.2277004,96.1322985 C29.7360945,86.8802694 29.5418791,71.685551 38.7939082,62.1939452 C42.4781147,58.4143379 47.3055326,55.9546457 52.5288213,55.1956574 L63.5496636,53.5942353 L63.5496636,53.5942353 L68.4783342,43.607658 C74.3444692,31.7215702 88.7354892,26.8414342 100.621577,32.7075692 C105.35468,35.043495 109.18574,38.8745555 111.521666,43.607658 L116.450336,53.5942353 L116.450336,53.5942353 L127.471179,55.1956574 C140.588255,57.1016802 149.67661,69.2803086 147.770587,82.3973853 C147.011599,87.6206741 144.551907,92.4480919 140.7723,96.1322985 L132.797543,103.905765 L132.797543,103.905765 L134.680128,114.882075 C136.920792,127.94615 128.146684,140.353092 115.08261,142.593756 C109.880426,143.486001 104.529193,142.638449 99.857341,140.182311 L90,135 L90,135 Z" jetway-hook-id="2D595A57-58E5-433B-B27A-1032DED25F22" id="Star" fill="#4682F4" opacity="0.326543899"></path>
                        <path d="M76.9568255,55.940015 C79.4421069,55.940015 82.2506489,47.449139 82.2506489,44.065904 C82.2506489,40.6826689 80.2359303,37.940015 77.7506489,37.940015 C75.2653676,37.940015 73.2506489,40.6826689 73.2506489,44.065904 C73.2506489,47.449139 74.4715442,55.940015 76.9568255,55.940015 Z" jetway-hook-id="F93345C7-C91E-41F5-B02F-6E9493E3A845" id="Oval-Copy-3" fill="#FFFFFF" transform="translate(77.750649, 46.940015) scale(-1, 1) rotate(-39.000000) translate(-77.750649, -46.940015) "></path>
                        <circle jetway-hook-id="722D21FE-E4A7-46AD-820A-7389836183DF" id="Oval" fill="#2270E8" opacity="0.310918899" cx="90.5" cy="90.5" r="18.5"></circle>
                    </g>
                </g>
            </g>
        </g>
    </g>
</svg>