<?xml version="1.0" encoding="UTF-8"?>
<svg width="295px" height="597px" viewBox="0 0 295 597" version="1.1" xmlns="http://www.w3.org/2000/svg" xmlns:xlink="http://www.w3.org/1999/xlink" jetway-hooks="{}">
    <!-- Generator: Sketch 59.1 (86144) - https://sketch.com -->
    <title>Fountain Pen</title>
    <desc>Created with Sketch.</desc>
    <defs>
        <path d="M16,0 L66,0 C74.836556,-1.623249e-15 82,7.163444 82,16 L82,447 C82,469.643675 63.6436747,488 41,488 C18.3563253,488 2.77305038e-15,469.643675 0,447 L0,16 C-1.082166e-15,7.163444 7.163444,1.623249e-15 16,0 Z" id="path-1"></path>
    </defs>
    <g jetway-hook-id="85E6447B-1202-4846-B89B-6675F60426A8" id="R3" stroke="none" stroke-width="1" fill="none" fill-rule="evenodd">
        <g jetway-hook-id="D3B6EF8C-CEA8-4956-81C7-3EB1CA69E940" id="Accessories" transform="translate(-3276.000000, -423.000000)">
            <g jetway-hook-id="19930362-5ABA-4783-A320-B9F9B0C7CAA6" id="Fountain-Pen" transform="translate(3414.500000, 722.851946) rotate(-156.000000) translate(-3414.500000, -722.851946) translate(3367.000000, 399.351946)">
                <g jetway-hook-id="0E030B01-46D9-444D-9F85-45D19481E762" id="Rectangle-2" transform="translate(6.000000, 159.000000)">
                    <mask id="mask-2" fill="white">
                        <use xlink:href="#path-1"></use>
                    </mask>
                    <use jetway-hook-id="093DD2D3-B12A-4FF1-B3BE-71455C27D859" id="Rectangle" fill="#A139F4" opacity="0.22781808" xlink:href="#path-1"></use>
                    <rect jetway-hook-id="47519BAF-F415-4644-B257-DB6A9ED6FC4D" id="Rectangle" fill="#F334A0" opacity="0.15562221" mask="url(#mask-2)" x="48" y="0" width="34" height="488"></rect>
                </g>
                <path d="M49.7014705,86.1269712 L49.701,144 L45.927,144 L45.9276686,86.1269712 C46.54131,86.2296002 47.1716837,86.2830189 47.8145695,86.2830189 C48.4574553,86.2830189 49.0878291,86.2296002 49.7014705,86.1269712 Z M47.5,0 C53.8512746,0 59,5.14872538 59,11.5 C59,11.718753 58.9938922,11.9360794 58.9818378,12.151818 L95,100.084906 L72.3509934,144 L54.735,144 L54.7356326,83.9293261 C57.4142404,81.8640388 59.1390728,78.6281604 59.1390728,74.990566 C59.1390728,68.7539166 54.06892,63.6981132 47.8145695,63.6981132 C41.5602191,63.6981132 36.4900662,68.7539166 36.4900662,74.990566 C36.4900662,78.6286116 38.2153266,81.8648414 40.8945031,83.9300945 L40.894,144 L20.7615894,144 L0,100.084906 L36.0182181,12.1528184 C36.0061267,11.9367512 36,11.7190911 36,11.5 C36,5.14872538 41.1487254,0 47.5,0 Z" jetway-hook-id="4E2DFAAD-6FE7-4F09-A27E-600735CC70C3" id="Combined-Shape" fill-opacity="0.250846809" fill="#A139F4"></path>
                <path d="M40.546333,26.9620542 C41.9953365,27.3314931 43.8208149,24.9616798 44.623653,21.6689282 C45.4264912,18.3761766 44.9026706,15.4073846 43.453667,15.0379458 C42.0046635,14.6685069 40.1791851,17.0383202 39.376347,20.3310718 C38.5735088,23.6238234 39.0973294,26.5926154 40.546333,26.9620542 Z" jetway-hook-id="6F2952AB-C16B-480F-8969-3BEFF564C438" id="Oval" fill="#FFFFFF"></path>
                <path d="M17.5,236 C19.9852814,236 22,204.19442 22,199.5 C22,194.80558 19.9852814,191 17.5,191 C15.0147186,191 13,194.80558 13,199.5 C13,204.19442 15.0147186,236 17.5,236 Z" jetway-hook-id="8234AED7-F7CB-438D-A7CB-E184639292ED" id="Oval" fill="#FFFFFF"></path>
            </g>
        </g>
    </g>
</svg>