<?xml version="1.0" encoding="UTF-8"?>
<svg width="329px" height="427px" viewBox="0 0 329 427" version="1.1" xmlns="http://www.w3.org/2000/svg" xmlns:xlink="http://www.w3.org/1999/xlink" jetway-hooks="{}">
    <!-- Generator: Sketch 59.1 (86144) - https://sketch.com -->
    <title>Gift</title>
    <desc>Created with Sketch.</desc>
    <defs>
        <path d="M326.94,245.18612 L326.95198,257.191496 C326.979919,286.462575 303.273671,310.214121 274.002592,310.24206 C273.848744,310.242207 273.694896,310.241684 273.541053,310.240491 L167.905,309.42112 L326.94,245.18612 Z M326.841,141.55212 L326.889,191.55712 L40.7675163,307.12528 C22.8715748,302.923301 8.49589886,289.660469 2.69912438,272.474481 L326.841,141.55212 Z M326.757826,53.7812918 L326.79,87.9231199 L0.36,219.76912 L0.955,170.42612 L324.823111,39.6148854 C326.077196,44.1236336 326.750663,48.8742848 326.757826,53.7812918 Z M273.70725,0.817120665 C277.599466,0.816457677 281.393994,1.23516523 285.048071,2.03055135 L1.606,116.51412 L2.195,67.6341199 L166.765,0.889119879 L273.70725,0.817120665 Z" id="path-1"></path>
    </defs>
    <g jetway-hook-id="85E6447B-1202-4846-B89B-6675F60426A8" id="R3" stroke="none" stroke-width="1" fill="none" fill-rule="evenodd">
        <g jetway-hook-id="D3B6EF8C-CEA8-4956-81C7-3EB1CA69E940" id="Accessories" transform="translate(-991.000000, -1761.000000)">
            <g jetway-hook-id="E9DB2444-2DA2-48A2-90A5-A3E23DBEB16A" id="Gift" transform="translate(988.000000, 1766.000000)">
                <g jetway-hook-id="83A4E9B8-88A7-4D15-AAA6-4AE9B2DD07F0" id="Group" transform="translate(166.517833, 267.543479) rotate(-1.000000) translate(-166.517833, -267.543479) translate(3.017833, 112.043479)">
                    <mask id="mask-2" fill="white">
                        <use xlink:href="#path-1"></use>
                    </mask>
                    <use jetway-hook-id="BE5FC3A0-8417-4129-88E1-E614427B9C8A" id="Combined-Shape" fill="#FABD04" opacity="0.342238653" xlink:href="#path-1"></use>
                </g>
                <path d="M57.6261981,113.658145 L274.004886,110.719683 C303.265746,110.342309 327.311281,133.734681 327.739669,162.994838 L330.595817,367.628452 C331.004324,396.896693 307.608888,420.954452 278.340647,421.362959 C278.094106,421.3664 277.847544,421.368121 277.600978,421.368121 L58.3458813,421.368121 C29.0747896,421.368121 5.3458813,397.639213 5.3458813,368.368121 L5.3458813,166.653258 C5.3458813,137.662835 28.638448,114.051804 57.6261981,113.658145 Z" jetway-hook-id="5CD31149-5D12-4C97-8F84-15C5A9BC28A1" id="Rectangle" fill="#FABD04" opacity="0.342238653"></path>
                <path d="M169.303294,110 C189.969961,66.1600769 200.303294,38.9934102 200.303294,28.5 C200.303294,12.7598846 187.54341,0 171.803294,0 C156.063179,0 143.303294,12.7598846 143.303294,28.5 C143.303294,38.9934102 151.969961,66.1600769 169.303294,110 Z" jetway-hook-id="E55826AD-F2FC-425F-8CA6-B7CD77A9134B" id="Oval" stroke="#F87C17" stroke-width="10" opacity="0.430199033" stroke-linejoin="round"></path>
                <path d="M199.092768,125 C213.233119,94.7105986 220.303294,75.9409016 220.303294,68.6909091 C220.303294,57.8159203 211.572847,49 200.803294,49 C190.033742,49 181.303294,57.8159203 181.303294,68.6909091 C181.303294,75.9409016 187.233119,94.7105986 199.092768,125 Z" jetway-hook-id="3012F169-F3A3-42F8-8114-06236DFE36E7" id="Oval-Copy-2" stroke="#F87C17" stroke-width="10" opacity="0.430199033" stroke-linejoin="round" transform="translate(200.803294, 87.000000) rotate(51.000000) translate(-200.803294, -87.000000) "></path>
                <path d="M135.092768,125 C149.233119,94.7105986 156.303294,75.9409016 156.303294,68.6909091 C156.303294,57.8159203 147.572847,49 136.803294,49 C126.033742,49 117.303294,57.8159203 117.303294,68.6909091 C117.303294,75.9409016 123.233119,94.7105986 135.092768,125 Z" jetway-hook-id="8D8CB3D2-13B3-4944-A92C-7B07C5C12BC0" id="Oval-Copy-2" stroke="#F87C17" stroke-width="10" opacity="0.430199033" stroke-linejoin="round" transform="translate(136.803294, 87.000000) scale(-1, 1) rotate(51.000000) translate(-136.803294, -87.000000) "></path>
                <rect jetway-hook-id="0061C3CD-23C1-4431-895F-F162434207AF" id="Rectangle" fill="#FF7300" opacity="0.365048363" x="159" y="114" width="20" height="306"></rect>
                <path d="M40,186 C43.0375661,186 45,156.537566 45,153.5 C45,150.462434 42.5375661,148 39.5,148 C36.4624339,148 34,150.462434 34,153.5 C34,156.537566 36.9624339,186 40,186 Z" jetway-hook-id="68BBC7D5-3844-4BEF-956A-7BFF3ABDCA20" id="Oval" fill="#FFFFFF"></path>
            </g>
        </g>
    </g>
</svg>