<?xml version="1.0" encoding="UTF-8"?>
<svg width="442px" height="498px" viewBox="0 0 442 498" version="1.1" xmlns="http://www.w3.org/2000/svg" xmlns:xlink="http://www.w3.org/1999/xlink" jetway-hooks="{}">
    <!-- Generator: Sketch 59.1 (86144) - https://sketch.com -->
    <title>Group 6</title>
    <desc>Created with Sketch.</desc>
    <g jetway-hook-id="85E6447B-1202-4846-B89B-6675F60426A8" id="R3" stroke="none" stroke-width="1" fill="none" fill-rule="evenodd">
        <g jetway-hook-id="D3B6EF8C-CEA8-4956-81C7-3EB1CA69E940" id="Accessories" transform="translate(-1707.000000, -1132.000000)">
            <g jetway-hook-id="6FE77486-3A2B-410E-AC86-592BA85D6A04" id="Group-6" transform="translate(1993.500000, 1373.500000) rotate(-41.000000) translate(-1993.500000, -1373.500000) translate(1744.000000, 1203.000000)">
                <circle jetway-hook-id="32216576-81A2-436C-8AD0-95527CDFE692" id="Oval" fill="#4682F4" opacity="0.402669271" cx="189.258227" cy="168.03169" r="125"></circle>
                <path d="M171.661722,102.593474 C178.087998,102.594966 185.345243,81.5083135 185.343293,73.1055521 C185.341342,64.7027908 180.130235,57.8897976 173.70396,57.8883056 C167.277684,57.8868142 162.069741,64.6973888 162.071691,73.1001502 C162.073642,81.5029115 165.235447,102.591983 171.661722,102.593474 Z" jetway-hook-id="2C87874A-65E9-4921-8A03-099DD96D527E" id="Oval-Copy-3" fill="#FFFFFF" transform="translate(173.707492, 80.240890) scale(-1, 1) rotate(-77.000000) translate(-173.707492, -80.240890) "></path>
                <circle jetway-hook-id="B7A74874-5A02-4FB2-9967-7395D373FE1B" id="Oval-Copy-4" fill="#FABD04" opacity="0.402669271" cx="32.3279598" cy="32.2767967" r="31.5"></circle>
                <circle jetway-hook-id="64A7964F-5CE7-4E93-8F73-AB3C18B8C748" id="Oval-Copy-6" fill="#E84335" opacity="0.402669271" cx="79.2672723" cy="277.795026" r="63"></circle>
                <circle jetway-hook-id="6149A604-D2F5-4C95-835C-44014B49524A" id="Oval-Copy-5" fill="#38A953" opacity="0.402669271" cx="435.494657" cy="96.5036641" r="63"></circle>
                <path d="M429.42411,61.0952439 C432.884412,61.0960471 436.792248,50.120467 436.791233,45.7468267 C436.790217,41.3731863 433.984265,37.8269991 430.523963,37.8261958 C427.063661,37.8253927 424.259355,41.3702776 424.26037,45.7439179 C424.261386,50.1175583 425.963808,61.0944407 429.42411,61.0952439 Z" jetway-hook-id="AE948D30-FB08-4539-93F1-21370C23E201" id="Oval-Copy-8" fill="#FFFFFF" transform="translate(430.525801, 49.460720) scale(-1, 1) rotate(-71.000000) translate(-430.525801, -49.460720) "></path>
            </g>
        </g>
    </g>
</svg>