<?xml version="1.0" encoding="UTF-8"?>
<svg width="320px" height="241px" viewBox="0 0 320 241" version="1.1" xmlns="http://www.w3.org/2000/svg" xmlns:xlink="http://www.w3.org/1999/xlink" jetway-hooks="{}">
    <!-- Generator: Sketch 59.1 (86144) - https://sketch.com -->
    <title>Heart</title>
    <desc>Created with Sketch.</desc>
    <g jetway-hook-id="85E6447B-1202-4846-B89B-6675F60426A8" id="R3" stroke="none" stroke-width="1" fill="none" fill-rule="evenodd">
        <g jetway-hook-id="D3B6EF8C-CEA8-4956-81C7-3EB1CA69E940" id="Accessories" transform="translate(-2531.000000, -1950.000000)">
            <g jetway-hook-id="E92DBB0A-A7FC-4144-AF65-B0881DB61D3E" id="Heart" transform="translate(2531.000000, 1950.000000)">
                <path d="M240,0 C284.18278,0 320,35.81722 320,80 C320,95.3650438 315.66835,109.718376 308.159594,121.905453 C296.520494,146.963739 261.473615,181.652397 203.018908,225.970585 C177.799595,245.090931 142.970189,245.210916 117.619739,226.264781 C65.9651277,187.659733 33.3473704,156.454603 19.7664677,132.649391 C7.45877015,118.58257 0,100.16233 0,80 C0,35.81722 35.81722,0 80,0 C120.104048,0 153.315778,29.5095257 159.105888,67.999277 L159.103998,67.9991897 L160.5,68 C160.630258,68 160.761046,67.9999344 160.89236,67.9998047 C166.684798,29.5090137 199.8963,0 240,0 Z" jetway-hook-id="EEE6DE70-8C4C-42E4-83D0-5EF1542A395D" id="Combined-Shape" fill="#E84335" opacity="0.29313151"></path>
                <path d="M40.5882353,49 C44.4542285,49 48,32.1952658 48,28.2121212 C48,24.2289767 44.8659932,21 41,21 C37.1340068,21 34,24.2289767 34,28.2121212 C34,32.1952658 36.722242,49 40.5882353,49 Z" jetway-hook-id="9DC871CF-C543-47A3-A2DD-482F57A7F837" id="Oval" fill="#FFFFFF" transform="translate(41.000000, 35.000000) rotate(33.000000) translate(-41.000000, -35.000000) "></path>
                <path d="M206.467667,33.3713002 C207.98645,33.3713002 209.379432,26.7694403 209.379432,25.2046335 C209.379432,23.6398267 208.148215,22.3713002 206.629432,22.3713002 C205.110649,22.3713002 203.879432,23.6398267 203.879432,25.2046335 C203.879432,26.7694403 204.948884,33.3713002 206.467667,33.3713002 Z" jetway-hook-id="A3F1F946-1BF8-4876-AD1B-E4FAA4244B73" id="Oval-Copy-21" fill="#FFFFFF" transform="translate(206.629432, 27.871300) rotate(33.000000) translate(-206.629432, -27.871300) "></path>
            </g>
        </g>
    </g>
</svg>