<?xml version="1.0" encoding="UTF-8"?>
<svg width="231px" height="776px" viewBox="0 0 231 776" version="1.1" xmlns="http://www.w3.org/2000/svg" xmlns:xlink="http://www.w3.org/1999/xlink" jetway-hooks="{}">
    <!-- Generator: Sketch 59.1 (86144) - https://sketch.com -->
    <title>Ice Cream</title>
    <desc>Created with Sketch.</desc>
    <g jetway-hook-id="85E6447B-1202-4846-B89B-6675F60426A8" id="R3" stroke="none" stroke-width="1" fill="none" fill-rule="evenodd">
        <g jetway-hook-id="D3B6EF8C-CEA8-4956-81C7-3EB1CA69E940" id="Accessories" transform="translate(-3175.000000, -1468.000000)">
            <g jetway-hook-id="968B8C31-53EF-4FDE-A62E-5B8E2E68CA47" id="Ice-Cream" transform="translate(3175.000000, 1468.000000)">
                <path d="M88.5653481,293.87181 C87.5499226,296.743983 87,299.811914 87,303 C87,319.016258 100.879173,332 118,332 C135.120827,332 149,319.016258 149,303 C149,302.640561 148.99301,302.28265 148.97915,301.926379 C153.037901,307.408266 159.819543,311 167.5,311 C171.767236,311 175.75702,309.891276 179.156695,307.965639 C210.348101,328.077067 231,363.126779 231,403 C231,414.43441 229.301659,425.472151 226.143469,435.874732 C224.38732,434.690182 222.27426,434 220,434 L220,434 L11,434 C10.4369693,434 9.88381847,434.042301 9.34355218,434.123897 C6.51389685,424.237744 5,413.795667 5,403 C5,350.774058 40.4298989,306.823211 88.5653481,293.87181 Z" jetway-hook-id="F3094D08-24EE-474A-896E-B2128AB5974C" id="Combined-Shape" fill="#F334A0" opacity="0.323242188"></path>
                <path d="M71.1695655,154.130435 C73.7263554,158.254963 78.2926088,161 83.5,161 C87.6376322,161 91.3704884,159.266948 94.0122765,156.487137 C97.2864449,168.315616 108.129049,177 121,177 C131.197841,177 140.122362,171.548272 145.018079,163.400301 C145.490598,175.409678 155.375329,185 167.5,185 C177.629904,185 186.196275,178.305719 189.01657,169.0997 C214.625356,189.814872 231,221.495184 231,257 C231,285.251244 220.632537,311.081037 203.494652,330.892339 C196.349177,321.614727 188.334871,313.915786 179.451734,307.795517 C175.988647,309.825908 171.891229,311 167.5,311 C159.819453,311 153.037742,307.408182 148.977928,301.926067 C148.993,302.282144 149,302.640307 149,303 C149,319.016258 135.120827,332 118,332 C100.879173,332 87,319.016258 87,303 C87,299.664828 87.6018357,296.461153 88.7094539,293.478833 C66.2869821,299.179683 47.76145,311.890766 33.132689,331.611417 C15.6207904,311.708018 5,285.594318 5,257 C5,211.296425 32.1329921,171.9301 71.1695655,154.130435 Z M190,192 C185.029437,192 181,196.029437 181,201 C181,205.970563 185.029437,210 190,210 C194.970563,210 199,205.970563 199,201 C199,196.029437 194.970563,192 190,192 Z M148.996249,148.536969 L148.991264,148.30268 C149.276205,148.383766 149.560688,148.465942 149.844706,148.549204 C149.547089,148.926999 149.262495,149.311179 148.990112,149.70446 C148.997089,149.470603 149,149.235641 149,149 L148.996249,148.536969 L148.991264,148.30268 Z" jetway-hook-id="C83B1B69-CBAA-4784-8885-27B419CB782B" id="Combined-Shape" fill="#FABD04" opacity="0.339704241"></path>
                <path d="M190,192 C194.970563,192 199,196.029437 199,201 C199,205.970563 194.970563,210 190,210 C185.029437,210 181,205.970563 181,201 C181,196.029437 185.029437,192 190,192 Z M118,0 C180.408177,0 231,50.5918233 231,113 C231,141.251244 220.632537,167.081037 203.494652,186.892339 C198.841256,180.850417 193.819381,175.478024 188.429026,170.77516 C185.131902,179.107274 177.004111,185 167.5,185 C155.375329,185 145.490598,175.409678 145.017708,163.400936 C140.122362,171.548272 131.197841,177 121,177 C108.129049,177 97.2864449,168.315616 94.0121302,156.486791 C91.3704884,159.266948 87.6376322,161 83.5,161 C78.823014,161 74.6632095,158.785682 72.0117648,155.348225 C56.9180453,162.262531 43.9583557,173.017618 33.132689,187.611417 C15.6207904,167.708018 5,141.594318 5,113 C5,50.5918233 55.5918233,0 118,0 Z" jetway-hook-id="31B8F548-EF33-4778-B799-93B392FED083" id="Combined-Shape" fill="#CEEAD6" opacity="0.339704241"></path>
                <path d="M220,434 C224.274827,434 227.980116,436.438486 229.800762,440.000355 L231,440 L230.498482,441.70658 C230.824353,442.746413 231,443.852694 231,445 L231,513 C231,519.075132 226.075132,524 220,524 L206.281,524 L136.227189,762.05982 C133.264882,772.126418 122.702868,777.885584 112.63627,774.923278 C106.440996,773.10019 101.5959,768.255094 99.7728115,762.05982 L29.719,524 L11,524 C4.92486775,524 7.43989126e-16,519.075132 0,513 L0,445 C-7.43989126e-16,438.924868 4.92486775,434 11,434 L220,434 Z" jetway-hook-id="12046D31-4823-4B34-977B-51B6B056876E" id="Combined-Shape" fill="#FF7300" opacity="0.169270833"></path>
                <path d="M32.7554732,346.10864 C37.1737512,346.10864 50.4495824,343.238357 50.4495824,340.753076 C50.4495824,338.267795 37.1737512,337.10864 32.7554732,337.10864 C28.3371952,337.10864 24.7554732,339.123358 24.7554732,341.60864 C24.7554732,344.093921 28.3371952,346.10864 32.7554732,346.10864 Z" jetway-hook-id="8AC92C45-EEEE-469D-9E42-D020014DA692" id="Oval" fill="#FFFFFF" transform="translate(37.602528, 341.608640) rotate(130.000000) translate(-37.602528, -341.608640) "></path>
                <path d="M33,202 C37.418278,202 50.6941092,199.129718 50.6941092,196.644436 C50.6941092,194.159155 37.418278,193 33,193 C28.581722,193 25,195.014719 25,197.5 C25,199.985281 28.581722,202 33,202 Z" jetway-hook-id="7BBBDC90-A796-4C0C-891B-EE512A356CBF" id="Oval-Copy-23" fill="#FFFFFF" transform="translate(37.847055, 197.500000) rotate(130.000000) translate(-37.847055, -197.500000) "></path>
                <path d="M45,47 C49.418278,47 62.6941092,44.1297178 62.6941092,41.6444365 C62.6941092,39.1591551 49.418278,38 45,38 C40.581722,38 37,40.0147186 37,42.5 C37,44.9852814 40.581722,47 45,47 Z" jetway-hook-id="2E08E91D-133A-4040-84E0-670CE8294563" id="Oval-Copy-24" fill="#FFFFFF" transform="translate(49.847055, 42.500000) rotate(130.000000) translate(-49.847055, -42.500000) "></path>
            </g>
        </g>
    </g>
</svg>