<?xml version="1.0" encoding="UTF-8"?>
<svg width="231px" height="551px" viewBox="0 0 231 551" version="1.1" xmlns="http://www.w3.org/2000/svg" xmlns:xlink="http://www.w3.org/1999/xlink" jetway-hooks="{}">
    <!-- Generator: Sketch 59.1 (86144) - https://sketch.com -->
    <title>Magic Wand</title>
    <desc>Created with Sketch.</desc>
    <g jetway-hook-id="85E6447B-1202-4846-B89B-6675F60426A8" id="R3" stroke="none" stroke-width="1" fill="none" fill-rule="evenodd">
        <g jetway-hook-id="D3B6EF8C-CEA8-4956-81C7-3EB1CA69E940" id="Accessories" transform="translate(-3768.000000, -521.000000)">
            <g jetway-hook-id="6696FB24-5D97-4B09-B1D2-93FF19EFB3BF" id="Magic-Wand" transform="translate(3470.000000, 380.000000)">
                <g jetway-hook-id="5D3FD692-C8D8-41B5-8BAC-B3536FD9D276" id="Group-4" transform="translate(414.586644, 413.997726) rotate(43.000000) translate(-414.586644, -413.997726) translate(113.586644, 128.997726)">
                    <g jetway-hook-id="61440361-FF6F-4074-A992-3B96275B993B" id="Group-22" transform="translate(301.008043, 284.837404) rotate(-50.000000) translate(-301.008043, -284.837404) translate(159.008043, 11.837404)">
                        <g jetway-hook-id="FA0016F4-123D-452D-B8B0-55F44E3B7CCB" id="Group-3" transform="translate(-0.000000, 131.000000)">
                            <path d="M158.872847,6.15920187 C171.947009,9.31164616 179.990151,22.4659101 176.837707,35.5400727 C176.693079,36.1398914 176.525705,36.7339965 176.33595,37.3211017 L62.9631067,388.097224 C58.1690273,402.930129 42.6775644,411.488169 27.569018,407.650191 C13.7448281,404.138473 5.38491739,390.084944 8.89663489,376.260754 C9.04667591,375.670104 9.21757612,375.08495 9.40901454,374.50639 L125.07439,24.9460134 C129.739764,10.8464617 144.435245,2.67800494 158.872847,6.15920187 Z" jetway-hook-id="F605EFC1-E3EB-4B06-81BC-5B8D1F3EDC25" id="Rectangle" fill="#00C4E4" opacity="0.172828311"></path>
                            <path d="M80.7454591,333.075795 L67.1474591,375.149795 L12.6128286,397.20272 C8.57323619,391.293694 6.99578314,383.743626 8.89663489,376.260754 C9.04667591,375.670104 9.21757612,375.08495 9.40901454,374.50639 L14.2154591,359.978795 L80.7454591,333.075795 Z" jetway-hook-id="4BACC178-845B-4BEA-A5FD-E8D84305755E" id="Combined-Shape" fill="#2A84FC" opacity="0.172828311"></path>
                            <path d="M104.879035,258.407567 L88.480035,309.146567 L22.161035,335.967567 L39.010035,285.047567 L104.879035,258.407567 Z" jetway-hook-id="09C10E86-52BB-40D7-A484-AE99B146C771" id="Combined-Shape" fill="#2FC0E0" opacity="0.198544457"></path>
                            <path d="M125.843443,193.54418 L112.305443,235.42918 L46.6424426,261.98018 L60.5884426,219.83418 L125.843443,193.54418 Z" jetway-hook-id="3E558B65-FC82-4D75-8D89-17C13BC5009D" id="Combined-Shape" fill="#F334A0" opacity="0.10530599"></path>
                            <path d="M145.781695,131.857148 L132.255695,173.707148 L67.1386947,200.037148 L81.0726947,157.927148 L145.781695,131.857148 Z" jetway-hook-id="E0A15419-860E-4C1C-84AC-D624DE2FA27C" id="Combined-Shape" fill="#AE2EFD" opacity="0.10530599"></path>
                        </g>
                        <path d="M147.837484,25.7739228 C155.877267,28.599528 160.104193,37.4076656 157.278588,45.4474487 C157.148029,45.8189321 157.003298,46.1852818 156.844713,46.5456932 L134.067217,98.3115529 C133.844786,98.8170656 133.254671,99.0465489 132.749159,98.8241183 C132.386339,98.6644739 132.152063,98.3055949 132.151905,97.9092056 L132.127567,36.9092473 C132.124967,30.3933758 137.405017,25.1091109 143.920888,25.1065111 C145.254762,25.1059789 146.579067,25.3316486 147.837484,25.7739228 Z" jetway-hook-id="0B76C6DD-5249-4B48-B3B5-D5E982D4FA06" id="Rectangle" fill="#FF00A3" opacity="0.448428199" transform="translate(147.837484, 61.455209) rotate(-19.000000) translate(-147.837484, -61.455209) "></path>
                        <path d="M81.9475086,70.074162 C89.9872917,72.8997673 94.214218,81.7079049 91.3886127,89.747688 C91.2580538,90.1191714 91.1133231,90.4855211 90.9547385,90.8459325 L68.1772417,142.611792 C67.954811,143.117305 67.3646964,143.346788 66.8591837,143.124358 C66.496364,142.964713 66.2620882,142.605834 66.2619301,142.209445 L66.2375918,81.2094865 C66.2349921,74.6936151 71.515042,69.4093502 78.0309134,69.4067504 C79.3647867,69.4062182 80.6890922,69.6318879 81.9475086,70.074162 Z" jetway-hook-id="787B2D27-9AC5-4098-9CE4-D3DE04862436" id="Rectangle-Copy-16" fill="#00AC47" opacity="0.278483073" transform="translate(81.947509, 105.755448) rotate(-59.000000) translate(-81.947509, -105.755448) "></path>
                        <path d="M232.343759,10.2003591 C242.034097,13.691847 247.059257,24.3778277 243.567769,34.0681651 C243.442104,34.4169383 243.306068,34.7618869 243.159842,35.1025514 L215.703849,99.0669444 C215.486007,99.5744515 214.897996,99.8092717 214.390488,99.59143 C214.023312,99.4338238 213.785202,99.0727705 213.784926,98.6731984 L213.732813,23.2864676 C213.727507,15.6100392 219.94618,9.38276279 227.622608,9.37745631 C229.2321,9.37634371 230.829556,9.6547824 232.343759,10.2003591 Z" jetway-hook-id="833087AE-1836-484B-97CA-2CDEC3DCE739" id="Rectangle-Copy" fill="#AE2EFD" opacity="0.448428199" transform="translate(232.343759, 53.509720) rotate(27.000000) translate(-232.343759, -53.509720) "></path>
                        <path d="M238.850586,127.670947 C246.898232,130.561638 251.078771,139.428911 248.188081,147.476558 C248.080374,147.776413 247.963436,148.072873 247.837436,148.365513 L225.323261,200.655456 C225.104852,201.162719 224.516578,201.396882 224.009315,201.178472 C223.642689,201.020616 223.405057,200.65985 223.40478,200.260685 L223.362006,138.572988 C223.357573,132.180025 228.536499,126.993912 234.929462,126.989479 C236.266045,126.988552 237.59269,127.219115 238.850586,127.670947 Z" jetway-hook-id="F795342D-6AB3-4EA1-A8FA-9A9F2E7C2318" id="Rectangle-Copy-20" fill="#2FC0E0" opacity="0.448428199" transform="translate(238.850586, 163.603395) rotate(66.000000) translate(-238.850586, -163.603395) "></path>
                        <path d="M133.538953,189.711316 C133.540164,180.083787 133.714766,160.024459 131.134586,160.02629 C128.554407,160.028122 127.543032,185.270461 127.541821,194.89799 C127.54061,204.525518 133.537742,199.338844 133.538953,189.711316 Z" jetway-hook-id="5DD7B743-CC27-4C57-985F-9E30F904F4F6" id="Oval-Copy-7" fill="#FFFFFF" transform="translate(130.541821, 180.026290) rotate(20.000000) translate(-130.541821, -180.026290) "></path>
                    </g>
                </g>
            </g>
        </g>
    </g>
</svg>