<?xml version="1.0" encoding="UTF-8"?>
<svg width="403px" height="111px" viewBox="0 0 403 111" version="1.1" xmlns="http://www.w3.org/2000/svg" xmlns:xlink="http://www.w3.org/1999/xlink" jetway-hooks="{}">
    <!-- Generator: Sketch 59.1 (86144) - https://sketch.com -->
    <title> Moustache Pink</title>
    <desc>Created with Sketch.</desc>
    <g jetway-hook-id="85E6447B-1202-4846-B89B-6675F60426A8" id="R3" stroke="none" stroke-width="1" fill="none" fill-rule="evenodd">
        <g jetway-hook-id="D3B6EF8C-CEA8-4956-81C7-3EB1CA69E940" id="Accessories" transform="translate(-949.000000, -2584.000000)">
            <g jetway-hook-id="AF42ED51-18DF-48A1-BF58-CFFEAACCA2A7" id="-Moustache-Pink" transform="translate(930.000000, 2575.000000)">
                <path d="M128.544403,139.098876 C128.544403,139.098876 128.544403,139.098876 128.544403,139.098876 C117.90052,121.131497 121.569862,106.64423 124.942285,96.4772137 C142.175411,44.5236263 165.942285,38.3005902 165.942285,8.47721375 C165.942285,-21.3461627 141.765662,-45.5227863 111.942285,-45.5227863 C92.0600343,-45.5227863 74.6854673,-30.9121583 59.8185845,-1.69090251 C51.9445747,23.5778325 53.7207065,53.3782953 65.1469797,87.7104856 C68.4461683,97.6234615 78.5165302,127.411372 102.213684,144.728548 C105.473454,147.110692 110.083613,149.75427 116.044159,152.659282 L116.044142,152.659315 C120.823509,154.988652 126.586252,153.00251 128.915588,148.223143 C130.334012,145.312801 130.19454,141.884386 128.544403,139.098876 Z" jetway-hook-id="881BD83F-0A51-4C4A-A221-03CE0B59AB19" id="Oval-Copy-22" fill="#FF00A3" opacity="0.208798363" transform="translate(110.471143, 62.079381) scale(-1, 1) rotate(-93.000000) translate(-110.471143, -62.079381) "></path>
                <path d="M157.038024,40.7451664 C159.523305,40.7451664 161.538024,30.1634444 161.538024,25.7451664 C161.538024,21.3268884 159.523305,17.7451664 157.038024,17.7451664 C154.552743,17.7451664 152.538024,21.3268884 152.538024,25.7451664 C152.538024,30.1634444 154.552743,40.7451664 157.038024,40.7451664 Z" jetway-hook-id="F683C5DD-9D9E-4DA4-8B6B-969A610CD333" id="Oval" fill="#FFFFFF" transform="translate(157.038024, 29.245166) rotate(71.000000) translate(-157.038024, -29.245166) "></path>
                <path d="M349.047484,138.621663 C349.047484,138.621663 349.047484,138.621663 349.047484,138.621663 C338.403601,120.654283 342.072943,106.167016 345.445366,96 C362.678492,44.0464126 386.445366,37.8233765 386.445366,8 C386.445366,-21.8233765 362.268743,-46 332.445366,-46 C312.563115,-46 295.188548,-31.3893721 280.321665,-2.16811626 C272.447656,23.1006188 274.223787,52.9010815 285.650061,87.2332719 C288.949249,97.1462478 299.019611,126.934158 322.716764,144.251335 C325.976535,146.633478 330.586694,149.277056 336.547239,152.182068 L336.547223,152.182102 C341.32659,154.511438 347.089333,152.525296 349.418669,147.74593 C350.837093,144.835587 350.697621,141.407172 349.047484,138.621663 Z" jetway-hook-id="558623DE-A23B-437B-AB27-B759C722B903" id="Oval-Copy-22" fill="#FF00A3" opacity="0.208798363" transform="translate(330.974223, 61.602167) rotate(-93.000000) translate(-330.974223, -61.602167) "></path>
                <path d="M261.003081,41 C263.488362,41 265.503081,30.418278 265.503081,26 C265.503081,21.581722 263.488362,18 261.003081,18 C258.517799,18 256.503081,21.581722 256.503081,26 C256.503081,30.418278 258.517799,41 261.003081,41 Z" jetway-hook-id="C53A3EAC-A5D5-47F0-A450-D59E8D430A86" id="Oval" fill="#FFFFFF" transform="translate(261.003081, 29.500000) rotate(71.000000) translate(-261.003081, -29.500000) "></path>
            </g>
        </g>
    </g>
</svg>