<?xml version="1.0" encoding="UTF-8"?>
<svg width="217px" height="370px" viewBox="0 0 217 370" version="1.1" xmlns="http://www.w3.org/2000/svg" xmlns:xlink="http://www.w3.org/1999/xlink" jetway-hooks="{}">
    <!-- Generator: Sketch 59.1 (86144) - https://sketch.com -->
    <title>Party Hat</title>
    <desc>Created with Sketch.</desc>
    <defs>
        <path d="M204.986757,192.650648 L213.290267,211.174839 C214.79051,214.521962 215.752719,217.973632 216.213865,221.432812 L112.663757,263.307648 L37.1307568,263.3083 C35.1708515,263.3083 33.2465379,263.155915 31.3690178,262.862345 L204.986757,192.650648 Z M174.163757,123.881648 L189.738757,158.630648 L1.13406334,234.902588 C0.478038549,232.14463 0.130756763,229.267021 0.130756763,226.3083 C0.130756763,221.092075 1.2336899,215.934796 3.36719117,211.174839 L13.3427568,188.917648 L174.163757,123.881648 Z M143.948757,56.4706481 L158.915757,89.8626481 L35.3417568,139.835648 L56.9357568,91.6586481 L143.948757,56.4706481 Z M114.872929,1.5181522 C118.455886,3.12410084 121.323241,5.99145585 122.92919,9.57441369 L128.700757,22.4516481 L78.9357568,42.5766481 L93.7282685,9.57441369 C97.34253,1.51080185 106.809317,-2.09610928 114.872929,1.5181522 Z" id="path-1"></path>
    </defs>
    <g jetway-hook-id="85E6447B-1202-4846-B89B-6675F60426A8" id="R3" stroke="none" stroke-width="1" fill="none" fill-rule="evenodd">
        <g jetway-hook-id="D3B6EF8C-CEA8-4956-81C7-3EB1CA69E940" id="Accessories" transform="translate(-365.000000, -1183.000000)">
            <g jetway-hook-id="BDB26BB0-86F5-4C65-8E25-A2BD5C0A860A" id="Party-Hat" transform="translate(343.000000, 1162.000000)">
                <path d="M152.661795,132.111289 L243.022872,333.711715 C251.380852,352.358818 243.03987,374.250762 224.392768,382.608742 C219.632812,384.742243 214.475533,385.845176 209.259307,385.845176 L66.8633619,385.845176 C46.4288261,385.845176 29.8633619,369.279712 29.8633619,348.845176 C29.8633619,343.62895 30.966295,338.471671 33.0997963,333.711715 L123.460874,132.111289 C127.075135,124.047678 136.541922,120.440766 144.605534,124.055028 C148.188492,125.660977 151.055847,128.528332 152.661795,132.111289 Z" jetway-hook-id="34D34995-1268-4FAE-BCB9-382A6A10629D" id="Rectangle" fill="#A139F4" opacity="0.460425967" transform="translate(138.061334, 242.691026) rotate(4.000000) translate(-138.061334, -242.691026) "></path>
                <g jetway-hook-id="BE4804A9-9790-42AB-BD73-1626906C06C3" id="Group-4" transform="translate(141.605371, 196.948396) rotate(4.000000) translate(-141.605371, -196.948396) translate(33.105371, 7.448396)">
                    <g jetway-hook-id="0441DBCB-6BF8-4162-A08E-741660CBB294" id="Group-3" opacity="0.556105841" transform="translate(0.000000, 114.814229)">
                        <mask id="mask-2" fill="white">
                            <use xlink:href="#path-1"></use>
                        </mask>
                        <use jetway-hook-id="7D47C1AD-3260-453B-B956-111001FD8B0B" id="Combined-Shape" fill="#A139F4" opacity="0.460425967" xlink:href="#path-1"></use>
                    </g>
                    <path d="M125.008889,34.2227058 C133.048672,37.048311 137.275598,45.8564486 134.449993,53.8962317 C134.319434,54.2677151 134.174704,54.6340648 134.016119,54.9944763 L111.238622,106.760336 C111.016191,107.265849 110.426077,107.495332 109.920564,107.272901 C109.557744,107.113257 109.323469,106.754378 109.32331,106.357989 L109.298972,45.3580303 C109.296372,38.8421589 114.576422,33.5578939 121.092294,33.5552942 C122.426167,33.554762 123.750473,33.7804317 125.008889,34.2227058 Z" jetway-hook-id="3D2E8CDF-57F1-423B-9B2B-00865CABA76F" id="Rectangle" fill="#F87C17" opacity="0.448428199" transform="translate(125.008889, 69.903992) rotate(15.000000) translate(-125.008889, -69.903992) "></path>
                    <path d="M148.449779,9.62909964 C158.140116,13.1205875 163.165276,23.8065683 159.673789,33.4969057 C159.548123,33.8456788 159.412087,34.1906275 159.265861,34.5312919 L131.809868,98.4956849 C131.592026,99.003192 131.004015,99.2380122 130.496508,99.0201705 C130.129332,98.8625644 129.891221,98.5015111 129.890945,98.1019389 L129.838833,22.7152081 C129.833526,15.0387798 136.052199,8.81150333 143.728627,8.80619685 C145.338119,8.80508425 146.935575,9.08352294 148.449779,9.62909964 Z" jetway-hook-id="403C7F54-EA32-4D0B-9801-F24F8255D4BB" id="Rectangle-Copy" fill="#FABD04" opacity="0.448428199" transform="translate(148.449779, 52.938460) rotate(30.000000) translate(-148.449779, -52.938460) "></path>
                    <path d="M94.7876404,168.092196 C94.7894569,158.464667 95.0513604,138.40534 91.1810911,138.407171 C87.3108218,138.409002 85.7937598,163.651341 85.791943,173.27887 C85.7901268,182.906399 94.7858239,177.719724 94.7876404,168.092196 Z" jetway-hook-id="60DA7C43-1444-4E39-98FD-74C99EDADF8C" id="Oval-Copy-7" fill="#FFFFFF" transform="translate(90.291943, 158.407171) rotate(20.000000) translate(-90.291943, -158.407171) "></path>
                </g>
            </g>
        </g>
    </g>
</svg>