<?xml version="1.0" encoding="UTF-8"?>
<svg width="331px" height="346px" viewBox="0 0 331 346" version="1.1" xmlns="http://www.w3.org/2000/svg" xmlns:xlink="http://www.w3.org/1999/xlink" jetway-hooks="{}">
    <!-- Generator: Sketch 59.1 (86144) - https://sketch.com -->
    <title>Stars</title>
    <desc>Created with Sketch.</desc>
    <g jetway-hook-id="85E6447B-1202-4846-B89B-6675F60426A8" id="R3" stroke="none" stroke-width="1" fill="none" fill-rule="evenodd">
        <g jetway-hook-id="D3B6EF8C-CEA8-4956-81C7-3EB1CA69E940" id="Accessories" transform="translate(-2520.000000, -1257.000000)">
            <g jetway-hook-id="60D14131-6FB5-474B-9610-44FB27762B2B" id="Stars" transform="translate(2493.000000, 1220.000000)">
                <g jetway-hook-id="1DCE018A-96D0-4AE3-B7F2-7B5C408698C9" id="Group-7" transform="translate(151.262150, 286.799693) rotate(-21.000000) translate(-151.262150, -286.799693) translate(34.762150, 170.299693)">
                    <path d="M116.414956,174.678571 L73.0973185,197.459322 C66.2539707,201.05824 57.7888422,198.428109 54.1899248,191.584762 C52.756641,188.85937 52.2618816,185.73746 52.7822588,182.702453 L61.0563548,134.445263 L61.0563548,134.445263 L26.0025838,100.265297 C20.4666809,94.8673905 20.3548127,86.0037867 25.7527191,80.4678838 C27.901503,78.2641666 30.7166288,76.8299921 33.7625478,76.3872519 L82.2014589,69.3464033 L82.2014589,69.3464033 L103.859861,25.4475798 C107.280888,18.5135922 115.675287,15.6657755 122.609275,19.0868032 C125.371522,20.4496154 127.607239,22.6853329 128.970051,25.4475798 L150.628453,69.3464033 L150.628453,69.3464033 L199.067364,76.3872519 C206.718941,77.4994486 212.020157,84.603891 210.90796,92.2554682 C210.46522,95.3013872 209.031045,98.116513 206.827328,100.265297 L171.773557,134.445263 L171.773557,134.445263 L180.047653,182.702453 C181.354299,190.323233 176.235682,197.560342 168.614902,198.866988 C165.579895,199.387366 162.457985,198.892606 159.732594,197.459322 L116.414956,174.678571 L116.414956,174.678571 Z" jetway-hook-id="1D00A8C9-9986-4820-8815-94D18867A208" id="Star" fill="#FABD04" opacity="0.494582403"></path>
                    <path d="M106.727734,64.1468108 C106.727259,59.5530639 103.129576,47.508726 100.207003,47.5084241 C97.284429,47.5081221 96.1436834,59.5519704 96.1441578,64.1457173 C96.1446324,68.7394642 106.728208,68.7405577 106.727734,64.1468108 Z" jetway-hook-id="8D8FD655-6685-438A-8B6C-6071D853A73A" id="Oval" fill="#FFFFFF" transform="translate(101.435946, 57.549999) rotate(20.000000) translate(-101.435946, -57.549999) "></path>
                </g>
                <g jetway-hook-id="CFAD4592-10CF-4D6E-BB9C-939249F0CAAD" id="Group-7-Copy" transform="translate(260.126803, 135.053727) rotate(10.000000) translate(-260.126803, -135.053727) translate(143.626803, 18.553727)">
                    <path d="M116.414956,174.678571 L73.0973185,197.459322 C66.2539707,201.05824 57.7888422,198.428109 54.1899248,191.584762 C52.756641,188.85937 52.2618816,185.73746 52.7822588,182.702453 L61.0563548,134.445263 L61.0563548,134.445263 L26.0025838,100.265297 C20.4666809,94.8673905 20.3548127,86.0037867 25.7527191,80.4678838 C27.901503,78.2641666 30.7166288,76.8299921 33.7625478,76.3872519 L82.2014589,69.3464033 L82.2014589,69.3464033 L103.859861,25.4475798 C107.280888,18.5135922 115.675287,15.6657755 122.609275,19.0868032 C125.371522,20.4496154 127.607239,22.6853329 128.970051,25.4475798 L150.628453,69.3464033 L150.628453,69.3464033 L199.067364,76.3872519 C206.718941,77.4994486 212.020157,84.603891 210.90796,92.2554682 C210.46522,95.3013872 209.031045,98.116513 206.827328,100.265297 L171.773557,134.445263 L171.773557,134.445263 L180.047653,182.702453 C181.354299,190.323233 176.235682,197.560342 168.614902,198.866988 C165.579895,199.387366 162.457985,198.892606 159.732594,197.459322 L116.414956,174.678571 L116.414956,174.678571 Z" jetway-hook-id="210CE5FF-76F5-4F58-9972-4B4B7AD214E4" id="Star" fill="#FABD04" opacity="0.31905692"></path>
                    <path d="M107.344522,68.0594061 C107.344047,63.4656593 103.746364,51.4213213 100.823791,51.4210194 C97.9012169,51.4207174 96.7604714,63.4645658 96.7609457,68.0583127 C96.7614203,72.6520595 107.344996,72.653153 107.344522,68.0594061 Z" jetway-hook-id="1621CEED-B70A-45A0-A499-3318D94A3BAB" id="Oval" fill="#FFFFFF" transform="translate(102.052734, 61.462594) rotate(20.000000) translate(-102.052734, -61.462594) "></path>
                </g>
                <g jetway-hook-id="F6F5DF06-8CFE-4005-B356-883ECDD38352" id="Group-7-Copy-2" transform="translate(76.268278, 98.173317) rotate(-10.000000) translate(-76.268278, -98.173317) translate(16.268278, 38.173317)">
                    <path d="M59.6554252,89.5119048 L40.7325754,99.4634338 C36.3332804,101.777024 30.8914121,100.086225 28.5778223,95.6869305 C27.6564256,93.934893 27.338366,91.9279511 27.6728942,89.976875 L31.2875848,68.8948364 L31.2875848,68.8948364 L15.9728495,53.96186 C12.4140548,50.4917773 12.3421395,44.7937463 15.8122222,41.2349515 C17.1935833,39.8182762 19.003307,38.8963069 20.9613978,38.6116882 L42.1231356,35.5357191 L42.1231356,35.5357191 L51.5842926,16.3591585 C53.7835246,11.901595 59.1799237,10.0708557 63.6374872,12.2700878 C65.4132173,13.1461813 66.8504643,14.5834283 67.7265579,16.3591585 L77.1877148,35.5357191 L77.1877148,35.5357191 L98.3494526,38.6116882 C103.268324,39.3266717 106.676248,43.8938133 105.961264,48.8126844 C105.676646,50.7707752 104.754676,52.5804989 103.338001,53.96186 L88.0232657,68.8948364 L88.0232657,68.8948364 L91.6379563,89.976875 C92.477943,94.875948 89.1874035,99.5283752 84.2883305,100.368362 C82.3372544,100.70289 80.3303125,100.384831 78.578275,99.4634338 L59.6554252,89.5119048 L59.6554252,89.5119048 Z" jetway-hook-id="7129C1B5-9B85-44A9-909E-56C2375BD0A6" id="Star" fill="#FF7300" opacity="0.494582403"></path>
                    <path d="M55.0073917,34.8762131 C55.0071485,32.5222035 53.1635599,26.3502293 51.6659226,26.3500746 C50.1682853,26.3499199 49.5837241,32.5216432 49.5839672,34.8756528 C49.5842104,37.2296623 55.0076348,37.2302227 55.0073917,34.8762131 Z" jetway-hook-id="457DAA5F-CA23-481E-82DD-E0621A800788" id="Oval" fill="#FFFFFF" transform="translate(52.295679, 31.495757) rotate(20.000000) translate(-52.295679, -31.495757) "></path>
                </g>
            </g>
        </g>
    </g>
</svg>